<?xml version="1.0" encoding="UTF-8" standalone="no"?>
<!-- Created with Inkscape (http://www.inkscape.org/) -->

<svg
   width="1024"
   height="1024"
   viewBox="0 0 270.93333 270.93333"
   version="1.1"
   id="svg106"
   xml:space="preserve"
   xmlns="http://www.w3.org/2000/svg"
   xmlns:svg="http://www.w3.org/2000/svg"><defs
     id="defs103"><rect
       x="259.42557"
       y="820.76882"
       width="784.98598"
       height="521.08756"
       id="rect1893" /></defs><g
     id="layer1"
     style="display:inline"><rect
       style="fill:#1069c9;fill-opacity:1;fill-rule:evenodd;stroke-width:0.264583"
       id="rect212"
       width="270.93332"
       height="270.93332"
       x="-1.7763568e-15"
       y="-1.7763568e-15" /></g><g
     id="layer2"><g
       id="g1243"
       transform="matrix(3.1359523,0,0,3.1359523,95.779107,52.9132)"
       style="display:inline;fill:#ffffff;fill-opacity:1">
	<path
   fill-rule="evenodd"
   clip-rule="evenodd"
   fill="#ffffff"
   d="m 3.821,23.142 c -0.152,0.245 -0.274,0.275 -0.488,0.122 l 0.122,-0.183 0.214,-0.336 c 0.06,-0.123 0.06,-0.123 0.152,-0.062 0.124,0.091 0.124,0.213 0.032,0.397 0,0.029 0,0.029 -0.032,0.062 z m 0.276,0.182 c 0.062,-0.091 0.09,-0.182 0.09,-0.243 0.032,-0.247 -0.09,-0.397 -0.243,-0.49 L 3.668,22.439 C 3.576,22.377 3.485,22.317 3.392,22.255 l -0.059,0.091 c 0.152,0.092 0.091,0.215 -0.032,0.399 l -0.215,0.336 -0.305,0.488 c -0.122,0.185 -0.183,0.306 -0.336,0.215 l -0.062,0.062 0.58,0.397 0.063,-0.093 C 2.841,24.029 2.901,23.936 3.056,23.724 L 3.27,23.388 3.422,23.48 c 0.187,0.122 0.494,0.181 0.675,-0.156 z"
   id="path1193"
   style="fill:#ffffff;fill-opacity:1" />
	<path
   fill-rule="evenodd"
   clip-rule="evenodd"
   fill="#ffffff"
   d="M 6.85,8.732 C 7.154,8.303 7.463,7.938 7.83,7.6 8.716,6.744 9.786,6.132 11.01,5.764 L 10.858,7.6 10.735,9.62 c 0,0.032 -0.031,0.062 -0.121,0.062 L 6.821,8.764 Z M 6.576,8.795 c 0,0.122 0.092,0.244 0.245,0.276 l 3.732,0.886 c 0.031,0 0.09,0.03 0.151,0 0.154,-0.031 0.278,-0.185 0.278,-0.337 L 11.133,7.601 11.284,5.765 C 11.284,5.674 11.225,5.583 11.133,5.52 11.072,5.489 10.982,5.46 10.89,5.489 9.573,5.917 8.411,6.622 7.463,7.601 7.155,7.906 6.881,8.212 6.636,8.58 6.576,8.64 6.576,8.703 6.576,8.795 Z"
   id="path1195"
   style="fill:#ffffff;fill-opacity:1" />
	<path
   fill-rule="evenodd"
   clip-rule="evenodd"
   fill="#ffffff"
   d="m 7.86,27.515 c -0.124,-0.031 -0.183,0.094 -0.244,0.183 0.183,0.031 0.275,0.092 0.458,0.031 0.304,-0.274 0.518,-0.702 0.916,-0.857 v -0.09 c -0.152,0 -0.275,0.09 -0.428,0.183 -0.151,0.154 -0.335,0.613 -0.702,0.55 z"
   id="path1197"
   style="fill:#ffffff;fill-opacity:1" />
	<path
   fill-rule="evenodd"
   clip-rule="evenodd"
   fill="#ffffff"
   d="M 5.688,24.58 5.78,24.335 5.932,23.967 c 0,-0.031 0.061,-0.031 0.091,0 0.154,0.062 0.154,0.215 0.061,0.398 C 6.052,24.427 6.023,24.457 5.993,24.488 5.902,24.639 5.81,24.639 5.688,24.58 Z M 5.382,25.467 C 5.259,25.404 5.29,25.252 5.353,25.098 c 0.029,0 0.029,-0.028 0.029,-0.059 l 0.184,-0.369 0.09,0.031 c 0.184,0.091 0.215,0.246 0.093,0.52 -0.031,0.031 -0.061,0.092 -0.093,0.123 -0.061,0.092 -0.183,0.153 -0.274,0.123 z m 0.733,-1.622 -0.549,-0.244 -0.062,0.09 c 0.184,0.062 0.123,0.183 0.031,0.399 l -0.031,0.031 -0.398,0.793 v 0.032 C 4.985,25.16 4.955,25.284 4.77,25.19 l -0.029,0.094 0.487,0.244 c 0.187,0.091 0.49,0.214 0.706,0.031 0.032,-0.063 0.091,-0.123 0.12,-0.186 0.156,-0.335 -0.03,-0.55 -0.182,-0.641 0.094,0 0.244,0.031 0.368,-0.063 C 6.3,24.638 6.331,24.579 6.393,24.487 6.544,24.15 6.299,23.936 6.115,23.845 Z"
   id="path1199"
   style="fill:#ffffff;fill-opacity:1" />
	<path
   fill-rule="evenodd"
   clip-rule="evenodd"
   fill="#ffffff"
   d="m 7.372,25.374 c -0.124,0.031 -0.185,-0.09 -0.217,-0.245 0,-0.031 0,-0.058 -0.03,-0.09 L 7.064,24.64 7.155,24.611 c 0.185,-0.03 0.309,0.092 0.368,0.368 0,0.06 0,0.092 0,0.15 -10e-4,0.123 -0.03,0.245 -0.151,0.245 z M 6.91,23.875 c -0.03,-0.06 0.03,-0.06 0.062,-0.06 0.152,-0.031 0.246,0.06 0.306,0.307 0,0.028 0,0.09 0,0.121 0,0.153 -0.06,0.245 -0.215,0.274 l -0.06,-0.244 z m 0.399,0.642 c 0.093,-0.061 0.213,-0.121 0.276,-0.274 0,-0.061 0.031,-0.121 0,-0.214 C 7.522,23.631 7.187,23.631 6.973,23.661 l -0.581,0.122 v 0.124 c 0.214,-0.062 0.214,0.06 0.276,0.304 v 0.031 l 0.183,0.886 v 0.032 c 0.03,0.213 0.06,0.367 -0.123,0.399 l 0.031,0.09 0.55,-0.121 c 0.213,-0.031 0.49,-0.123 0.551,-0.399 0,-0.058 0,-0.15 0,-0.213 C 7.767,24.549 7.522,24.488 7.309,24.517 Z"
   id="path1201"
   style="fill:#ffffff;fill-opacity:1" />
	<path
   fill-rule="evenodd"
   clip-rule="evenodd"
   fill="#ffffff"
   d="M 5.442,23.631 5.505,23.569 5.078,23.295 5.015,23.387 c 0.063,0.029 0.155,0.092 0.063,0.215 -0.063,0.09 -0.217,0.244 -0.307,0.306 l -0.52,0.489 0.305,-0.949 c 0,-0.031 0.031,-0.123 0.06,-0.183 0.064,-0.091 0.155,-0.06 0.215,0 L 4.893,23.174 4.312,22.805 4.25,22.867 c 0.123,0.122 0.123,0.152 0.031,0.397 l -0.46,1.501 0.063,0.06 1.193,-1.04 c 0.151,-0.124 0.244,-0.216 0.365,-0.154 z"
   id="path1203"
   style="fill:#ffffff;fill-opacity:1" />
	<path
   fill-rule="evenodd"
   clip-rule="evenodd"
   fill="#ffffff"
   d="M 2.629,23.355 2.537,23.295 C 2.321,23.569 2.201,23.602 2.018,23.478 1.804,23.354 1.923,23.203 2.046,22.989 l 0.185,-0.306 c 0.154,0.12 0.184,0.184 0.062,0.426 L 2.385,23.141 2.751,22.498 2.69,22.469 C 2.538,22.683 2.447,22.683 2.293,22.59 l 0.275,-0.458 c 0.031,-0.031 0.093,-0.123 0.093,-0.123 0.029,-0.031 0.154,0.031 0.184,0.061 0.152,0.091 0.185,0.215 0.09,0.49 l 0.062,0.03 0.245,-0.429 -0.92,-0.549 -0.028,0.06 c 0.154,0.092 0.092,0.215 -0.031,0.43 l -0.52,0.794 C 1.623,23.11 1.56,23.233 1.376,23.11 l -0.031,0.094 0.977,0.611 0.125,-0.184 z"
   id="path1205"
   style="fill:#ffffff;fill-opacity:1" />
	<path
   fill-rule="evenodd"
   clip-rule="evenodd"
   fill="#ffffff"
   d="m 8.991,24.639 c 0,0.339 -0.062,0.431 -0.304,0.489 C 8.472,25.16 8.441,25.006 8.378,24.701 L 8.195,23.907 C 8.164,23.661 8.135,23.539 8.318,23.509 v -0.093 l -0.672,0.123 v 0.092 c 0.184,-0.029 0.214,0.092 0.276,0.336 l 0.183,0.948 c 0.031,0.213 0.06,0.369 -0.123,0.369 l 0.031,0.12 1.164,-0.244 -0.093,-0.521 z"
   id="path1207"
   style="fill:#ffffff;fill-opacity:1" />
	<path
   fill-rule="evenodd"
   clip-rule="evenodd"
   fill="#ffffff"
   d="m 11.653,24.029 0.06,-0.214 0.064,-0.46 0.182,0.46 0.063,0.183 z m 0.796,0.214 -0.183,-0.428 -0.368,-0.981 h -0.09 l -0.184,0.981 -0.092,0.397 c -0.033,0.185 -0.062,0.458 -0.247,0.49 l 0.033,0.091 0.46,-0.029 v -0.125 c -0.064,0 -0.154,0 -0.184,-0.122 l 0.031,-0.335 0.458,-0.033 0.124,0.338 c 0,0.122 -0.124,0.122 -0.183,0.151 l 0.029,0.093 0.52,-0.031 0.151,-0.031 v -0.09 c -0.061,0 -0.121,-0.031 -0.151,-0.063 -0.064,-0.06 -0.093,-0.181 -0.124,-0.273 z"
   id="path1209"
   style="fill:#ffffff;fill-opacity:1" />
	<path
   fill-rule="evenodd"
   clip-rule="evenodd"
   fill="#ffffff"
   d="M 12.571,6.958 V 6.929 l 1.101,3.669 h 3.764 l -3.119,2.11 1.254,3.642 -2.999,-2.296 -3.029,2.296 1.286,-3.642 -3.121,-2.11 h 3.762 z m -5.965,3.305 3.824,2.569 -1.561,4.466 3.702,-2.846 3.702,2.846 -1.56,-4.466 3.823,-2.569 h -4.619 l -1.346,-4.498 -1.346,4.498 z"
   id="path1211"
   style="fill:#ffffff;fill-opacity:1" />
	<path
   fill-rule="evenodd"
   clip-rule="evenodd"
   fill="#ffffff"
   d="m 10.982,24.182 c 0,0.306 -0.063,0.582 -0.307,0.611 -0.306,0.031 -0.458,-0.366 -0.52,-0.764 -0.061,-0.368 -0.031,-0.857 0.276,-0.887 0.213,-0.032 0.368,0.153 0.428,0.427 l 0.092,-0.03 -0.092,-0.58 h -0.092 v 0.183 c -0.123,-0.123 -0.243,-0.152 -0.397,-0.123 -0.397,0.062 -0.642,0.52 -0.552,1.103 0.094,0.548 0.399,0.885 0.797,0.825 0.151,-0.032 0.305,-0.124 0.395,-0.277 l 0.063,0.154 h 0.092 l -0.092,-0.641 h -0.091 z"
   id="path1213"
   style="fill:#ffffff;fill-opacity:1" />
	<path
   fill-rule="evenodd"
   clip-rule="evenodd"
   fill="#ffffff"
   d="M 9.727,24.58 9.542,23.631 C 9.511,23.416 9.481,23.264 9.665,23.233 L 9.634,23.141 8.961,23.263 8.99,23.386 c 0.185,-0.063 0.214,0.092 0.245,0.305 l 0.184,0.948 c 0.031,0.215 0.062,0.367 -0.123,0.399 l 0.033,0.09 0.672,-0.122 L 9.97,24.914 C 9.786,24.947 9.756,24.824 9.727,24.58 Z"
   id="path1215"
   style="fill:#ffffff;fill-opacity:1" />
	<path
   fill-rule="evenodd"
   clip-rule="evenodd"
   fill="#ffffff"
   d="m 14.008,5.642 c 1.134,0.367 2.173,0.979 3.06,1.806 0.368,0.365 0.703,0.795 1.011,1.223 L 14.346,9.62 c -0.03,0 -0.092,-0.031 -0.124,-0.091 L 14.072,7.478 13.948,5.643 c -0.001,-10e-4 0.029,-10e-4 0.06,-10e-4 l -0.03,3.887 c 0,0.06 0,0.091 0.03,0.152 0.064,0.152 0.247,0.214 0.397,0.184 L 18.169,8.947 C 18.261,8.918 18.323,8.824 18.351,8.733 18.382,8.641 18.382,8.549 18.323,8.489 18.048,8.122 17.771,7.785 17.466,7.449 16.518,6.499 15.356,5.797 14.071,5.398 c -0.064,-0.029 -0.155,-0.029 -0.216,0 -0.152,0.031 -0.213,0.154 -0.183,0.306 l 0.121,1.775 0.184,2.051 z"
   id="path1217"
   style="fill:#ffffff;fill-opacity:1" />
	<path
   fill-rule="evenodd"
   clip-rule="evenodd"
   fill="#ffffff"
   d="m 12.571,18.583 c -0.889,0 -1.773,-0.181 -2.599,-0.488 l 2.538,-2.907 c 0.031,0 0.031,0 0.062,-0.029 0.031,0 0.063,0.029 0.09,0.029 l 2.481,3.028 c -0.797,0.276 -1.652,0.398 -2.572,0.367 z m 0.307,-3.549 c -0.031,-0.031 -0.062,-0.062 -0.124,-0.092 -0.061,-0.031 -0.12,-0.061 -0.183,-0.031 -0.122,0 -0.184,0.031 -0.274,0.123 l -2.54,2.906 c -0.155,0.276 0.06,0.429 0.154,0.462 0.855,0.304 1.742,0.456 2.66,0.488 0.888,0 1.745,-0.122 2.599,-0.397 0.062,-0.032 0.399,-0.214 0.154,-0.492 z"
   id="path1219"
   style="fill:#ffffff;fill-opacity:1" />
	<path
   fill-rule="evenodd"
   clip-rule="evenodd"
   fill="#ffffff"
   d="m 20.832,24.304 -0.093,-0.368 -0.094,-0.275 0.277,0.275 0.214,0.186 z m 1.008,0.031 c -0.06,-0.031 -0.155,-0.124 -0.216,-0.186 l -0.244,-0.214 -0.888,-0.826 -0.092,0.063 0.216,0.735 0.183,0.61 c 0.032,0.184 0.154,0.461 0,0.553 l 0.059,0.09 0.399,-0.276 -0.059,-0.06 c -0.064,0.031 -0.154,0.06 -0.215,-0.06 l -0.125,-0.308 0.399,-0.245 0.245,0.276 c 0.062,0.092 -0.032,0.151 -0.06,0.182 l 0.028,0.094 0.584,-0.368 -0.063,-0.092 c -0.029,0.032 -0.09,0.062 -0.151,0.032 z"
   id="path1221"
   style="fill:#ffffff;fill-opacity:1" />
	<path
   fill-rule="evenodd"
   clip-rule="evenodd"
   fill="#ffffff"
   d="m 21.656,4.94 c -0.059,0.122 0.029,0.214 0.029,0.335 0.033,0.064 0.095,0.186 0.186,0.154 0,-0.123 -0.06,-0.183 -0.06,-0.275 C 21.749,5.092 21.78,4.909 21.656,4.94 Z"
   id="path1223"
   style="fill:#ffffff;fill-opacity:1" />
	<path
   fill-rule="evenodd"
   clip-rule="evenodd"
   fill="#ffffff"
   d="m 15.201,23.109 c 0.185,0.032 0.155,0.154 0.092,0.4 l -0.214,0.917 c -0.032,0.243 -0.063,0.366 -0.245,0.337 l -0.032,0.091 0.675,0.152 v -0.123 c -0.184,-0.029 -0.154,-0.151 -0.092,-0.367 l 0.214,-0.948 c 0.059,-0.214 0.059,-0.365 0.274,-0.305 v -0.122 l -0.641,-0.123 z"
   id="path1225"
   style="fill:#ffffff;fill-opacity:1" />
	<path
   fill-rule="evenodd"
   clip-rule="evenodd"
   fill="#ffffff"
   d="M 22.329,22.161 C 22.3,22.07 22.36,22.04 22.392,22.009 l -0.063,-0.092 -0.367,0.244 0.031,0.093 c 0.186,-0.093 0.307,0.091 0.43,0.244 l 0.428,0.643 -1.407,-0.643 -0.337,0.247 0.063,0.089 c 0.09,-0.06 0.151,-0.031 0.274,0.033 l 0.643,0.948 c 0.122,0.183 0.182,0.276 0.059,0.397 l 0.033,0.093 0.397,-0.276 -0.064,-0.093 c -0.151,0.123 -0.272,-0.09 -0.396,-0.244 l -0.492,-0.733 1.563,0.702 0.091,-0.06 -0.767,-1.132 C 22.453,22.407 22.36,22.254 22.329,22.161 Z"
   id="path1227"
   style="fill:#ffffff;fill-opacity:1" />
	<path
   fill-rule="evenodd"
   clip-rule="evenodd"
   fill="#ffffff"
   d="m 20.035,18.798 c 0.093,-0.154 0.277,-0.306 0.366,-0.46 0,0.154 -0.059,0.338 -0.184,0.46 -0.058,0.091 -0.119,0.152 -0.182,0.214 -0.029,0 -0.029,-0.031 -0.06,-0.062 -0.001,-0.029 0.03,-0.092 0.06,-0.152 z m 1.499,-1.255 c -0.063,0.123 -0.122,0.243 -0.243,0.336 -0.032,0 -0.063,-0.154 -0.063,-0.336 0,-0.245 0.063,-0.581 0.215,-0.611 0.181,0.304 0.091,0.611 0.091,0.611 z m 0.122,0.765 c -0.059,-0.243 0.063,-0.458 0.155,-0.673 0,-0.03 0,-0.059 0,-0.091 0,-0.031 0,-0.061 0.029,-0.091 0.031,0 0.031,0.06 0.062,0.091 0,0.032 0,0.032 0,0.061 0.122,0.244 -0.062,0.551 -0.246,0.703 z m 0.736,0.184 c -0.152,0.183 -0.368,0.335 -0.399,0.579 0,0.063 -0.122,0.123 -0.243,0.091 -0.094,0 -0.125,-0.151 -0.246,-0.122 -0.091,0.276 -0.397,0.186 -0.581,0.368 -0.397,0.367 -0.429,-0.182 -0.459,-0.122 -0.247,0.274 -0.458,0.61 -0.703,0.887 -0.154,0.183 -0.245,0.548 -0.306,0.611 -0.032,0.029 -0.122,0.124 -0.122,0.124 -0.031,0.091 -0.062,0.182 -0.186,0.151 -0.091,0 -0.091,-0.151 -0.214,-0.059 -0.06,0.152 -0.152,0 -0.242,0.029 -0.094,0.154 -0.554,0.674 -0.888,0.705 -0.063,0.029 -0.182,0.029 -0.246,-0.063 -0.151,-0.09 -0.366,0.398 -0.519,0.43 -0.032,0.031 0,0.06 0.029,0.06 h 0.183 c 0,0.123 -0.183,0.277 -0.335,0.367 0,0 -0.154,0.093 -0.305,0.154 0,0 -0.461,0 -0.952,-0.185 v -0.182 l 0.522,-0.307 c 0.032,0.152 0.122,0.214 0.245,0.307 0.093,0.06 0.122,0 0.153,-0.062 0.032,-0.214 -0.458,-0.276 -0.093,-0.519 0.214,-0.153 0.214,-0.031 0.553,-0.094 0.245,-0.059 0.489,-0.183 0.671,-0.336 0,0 0.276,-0.122 0.768,-0.979 0,0 0.242,-0.428 2.14,-3.822 0,0 0.458,-0.429 1.132,-2.053 0.061,-0.119 0.091,0.124 0.182,0.094 0.155,-0.185 -0.06,-0.307 -0.151,-0.459 -0.062,-0.215 -0.124,-0.489 -0.062,-0.733 0.031,-0.062 0.153,-0.031 0.183,0.122 0.029,0.184 0.06,0.366 0.123,0.552 0.305,0 0.429,-1.745 0.457,-2.082 0,-0.03 0,-0.03 0,-0.061 -0.152,-0.214 -0.58,-0.306 -0.551,-0.488 0.308,-0.093 -0.151,-0.704 -0.182,-0.461 0,0.062 0.061,0.154 0,0.214 -0.49,0.031 -0.399,-0.458 -0.521,-0.581 -0.092,-0.122 -0.336,0 -0.368,-0.213 0,-0.123 -0.027,-0.246 -0.151,-0.306 -0.122,-0.031 -0.307,0.091 -0.307,-0.215 0,-0.244 0.584,0.306 0.431,-0.182 C 20.617,9.19 20.189,9.497 20.128,9.406 19.975,9.159 19.546,8.487 19.546,8.183 c 0.031,-0.154 0.273,0.182 0.273,-0.032 0,-0.183 -0.242,-0.429 -0.302,-0.398 -0.275,0.124 -0.368,-0.185 -0.368,-0.305 -0.03,-0.062 -0.03,-0.184 0,-0.338 -0.059,-0.122 -0.243,-0.122 -0.274,-0.274 -0.029,-0.062 -0.092,-0.185 0,-0.276 0.672,-0.214 0,-0.488 0.152,-0.672 0.122,-0.124 0.429,0.092 0.611,-0.186 0.154,-0.152 0.182,-0.091 0.246,0 0.215,0.186 -0.092,0.612 0.277,0.612 0.09,0 0.215,-0.243 0.366,-0.092 0.214,0.215 0.183,0.398 0.275,0.705 0.154,0.427 -0.123,0.52 -0.155,0.549 -0.028,0.031 -0.059,0.091 -0.059,0.154 -0.031,0.091 -0.031,0.215 0.059,0.306 0.124,-0.06 0.247,-0.154 0.308,-0.274 0.031,-0.063 0.092,-0.063 0.152,-0.032 0.063,0.091 0,0.274 0.063,0.365 0.487,0.519 0,0.826 0,0.826 -0.063,-0.153 0,-0.335 -0.156,-0.427 -0.091,0.213 0.094,0.521 -0.028,0.734 0,0 -0.063,-0.367 -0.888,-1.467 0,-0.186 -0.063,-0.491 -0.033,-0.675 -0.029,0 -0.029,-0.06 -0.09,-0.031 -0.062,0 -0.032,0.093 -0.092,0.062 C 19.731,6.712 19.669,6.374 19.486,6.069 l -0.063,0.09 c 0.123,0.428 0.307,0.827 0.43,1.255 H 19.79 L 19.485,7.08 c -0.031,0 -0.063,0 -0.063,0.031 0.032,0.245 0.338,0.458 0.52,0.643 l 0.675,0.979 C 20.493,8.672 20.342,8.581 20.189,8.581 c -0.031,0.029 -0.031,0.06 0,0.091 0.488,0.275 0.917,0.827 1.039,1.346 -0.059,0.06 -0.153,-0.091 -0.182,0.031 0.029,0.123 0.334,0.366 0.551,0.428 v -0.153 c -0.185,-0.429 -0.49,-0.826 -0.428,-1.347 0.059,0.094 0.181,0.582 0.365,0.062 0.151,-0.03 0.09,0.336 0.151,0.398 0.186,0.183 0.277,0.244 0.186,0.52 -0.06,0.12 -0.122,0.183 -0.091,0.489 0.091,0.183 0.46,0.122 0.336,0.396 -0.03,0.093 -0.091,0.216 -0.06,0.307 0.152,0.062 0.213,0.216 0.337,0.307 0.119,-0.153 -0.063,-0.336 -0.063,-0.49 0.093,-0.214 -0.029,-0.429 -0.09,-0.642 -0.154,-0.061 -0.032,-0.216 -0.032,-0.337 0,-0.03 0.032,0 0.032,0 -0.061,0.276 0.428,0.304 0.183,0.581 0.089,0.307 0.276,0.552 0.214,0.888 0.091,0.122 0.151,-0.03 0.214,-0.091 0.12,-0.154 0.243,-0.399 0.152,-0.582 -0.091,0 -0.152,-0.122 -0.215,-0.122 0.031,-0.215 -0.151,-0.306 -0.151,-0.489 0.062,-0.032 0.12,-0.032 0.151,-0.095 C 22.819,9.712 22.36,9.651 22.3,9.315 22.3,9.071 22.024,8.977 21.962,8.764 22.086,8.672 22.423,8.795 22.3,8.517 21.993,8.212 21.624,7.906 21.504,7.478 c 0,-0.029 -0.091,-0.243 0,-0.305 0.093,0 0.182,-0.03 0.182,-0.152 0,-0.246 -0.242,-0.398 -0.426,-0.522 C 21.076,6.255 21.076,5.981 20.955,5.735 21.076,5.461 21.17,5.154 21.292,4.849 21.26,4.786 20.955,4.358 21.625,4.571 c 0.061,0.031 0.307,-0.092 0.338,-0.243 0.183,0.092 0.154,0.826 0.338,0.795 0.123,-0.031 0.092,-0.245 0.275,-0.122 0,0 0,0.519 0.337,0.857 0,0.215 -0.093,0.458 0.028,0.673 0,0 0.125,0.153 0.276,-0.061 -0.029,0.887 0.215,0.979 0.247,1.009 -0.124,0.214 -0.645,1.07 -0.064,1.132 0.123,0 0,-0.397 0.152,-0.52 0.063,-0.06 0.277,0.122 0.307,0.551 0.031,0.337 -0.643,0.735 -0.214,1.163 0.029,-0.061 0.061,-0.091 0.091,-0.151 0.092,0.09 0.154,0.305 0.123,0.426 -0.307,0.123 -0.245,0.49 -0.245,0.736 -0.092,0.245 -0.49,0.276 -0.428,0.582 0.029,0.305 -0.368,0.335 -0.459,0.549 0,0.032 -0.612,3.487 -1.072,3.855 -0.152,0.122 -0.581,1.011 -0.978,1.437 -0.091,0.093 -0.214,0 -0.304,0.062 0.027,0.092 0.027,0.184 0.027,0.245 -0.059,0.151 -0.366,0.735 -0.548,0.795 -0.063,0.154 -0.154,0.306 -0.246,0.46 -0.091,0.183 -0.641,0.856 -0.641,1.253 -0.032,0.764 0.091,0.704 0.091,0.704 0.184,-0.092 0.152,-0.367 0.184,-0.552 0.366,-0.397 0.702,-0.857 1.101,-1.192 0.032,-0.062 0.09,-0.155 0.122,-0.214 0.214,-0.154 0.245,-0.888 0.306,-1.072 0.031,0.061 0.123,0 0.215,0 -0.031,0.308 0.151,0.612 0,0.888 -0.092,-0.031 -0.185,-0.031 -0.246,0.03 0.031,0.062 0.153,0.09 0.093,0.183 -0.063,0.094 -0.155,0.185 -0.187,0.277 0.063,0.184 0.124,-0.032 0.214,-0.032 0.187,0.091 0.276,-0.182 0.461,-0.03 0.183,-0.274 0.55,-0.458 0.611,-0.763 0.214,-0.184 0.214,-0.461 0.337,-0.674 0.032,0 0.032,-0.029 0.061,-0.061 0.214,-0.184 0.338,-0.459 0.641,-0.52 0.032,-0.031 0.064,-0.091 0.064,-0.122 -0.153,-0.123 -0.278,0.122 -0.431,0.122 0.124,-0.427 0.399,-0.825 0.431,-1.285 0.152,-0.338 0.429,-0.52 0.763,-0.644 0.062,-0.06 0.092,-0.122 0.062,-0.243 -0.152,0.183 -0.366,0.183 -0.55,0.306 -0.06,-0.552 0.979,-1.5 0.979,-1.867 -0.031,-0.029 -0.061,-0.029 -0.093,-0.029 -0.215,0.182 -0.215,0.579 -0.488,0.64 0.183,-1.16 0.368,-1.621 0.368,-1.621 0,-0.028 -0.032,-0.062 -0.064,-0.092 -0.213,-0.092 -0.396,1.56 -0.459,1.53 -0.274,-0.122 -0.059,-0.581 -0.243,-0.797 -0.06,0 -0.092,0.063 -0.092,0.092 0,0 -0.123,0.307 0.123,0.825 -0.091,0.552 -0.246,1.163 -0.369,1.683 l -0.059,0.062 c -0.031,-0.184 -0.061,-0.397 -0.155,-0.582 -0.029,-0.183 0.031,-0.367 -0.059,-0.489 -0.245,0.215 -0.062,0.58 0,0.826 0.029,0.489 -0.031,0.917 -0.216,1.314 -0.059,0.091 0.029,0.184 0,0.277 -0.09,0.183 -0.182,0.397 -0.304,0.549 -0.368,-0.336 0.029,-1.193 0.029,-1.284 0,-0.245 -0.215,-0.153 -0.246,-0.368 -0.031,-0.151 0.246,-0.214 0.154,-0.398 0.029,-0.122 0.244,-0.244 0.184,-0.397 -0.155,-0.458 0.337,-0.948 0.337,-1.346 -0.033,-0.153 0.214,0.09 0.245,-0.092 0.031,-0.244 -0.124,-0.551 0.059,-0.734 0.063,-0.216 -0.09,-0.429 0.063,-0.61 0.091,-0.125 0.246,-0.156 0.337,-0.064 0.092,0.122 0,0.397 0.183,0.338 0.123,-0.094 0.06,-0.674 0.092,-0.704 0,-0.031 0.122,-0.154 0.337,-0.154 0.059,0 0.091,0.245 0.306,0.275 0.213,0.123 0.521,0.153 0.521,0.245 0.028,0.215 -0.399,0.368 -0.156,0.552 0.032,0.03 0.278,-0.033 0.278,0.122 0.031,0.214 -0.246,0.334 -0.184,0.581 0.032,0.335 -0.337,0.397 -0.459,0.643 -0.031,0.091 0.091,0.152 0.185,0.152 0.06,0.031 0.12,-0.028 0.151,0.063 0.03,0.151 -0.031,0.305 -0.091,0.428 -0.092,0.06 -0.276,0.092 -0.276,0.183 -0.032,0.368 -0.185,0.704 -0.429,0.918 -0.032,0 -0.549,0.092 -0.334,0.368 0.088,0.091 0.302,-0.153 0.334,0.029 -0.611,1.071 -0.795,1.348 -0.795,1.348 -0.184,0.304 -0.643,0.151 -0.643,0.581 10e-4,0.122 0.123,0.246 0.033,0.336 z m 0.03,0.855 c 0.181,0.338 0.214,0.642 0.214,0.642 0,0.062 0,0.124 0,0.185 0,0.092 -0.277,0.092 -0.277,0.092 0,-0.092 0.151,-0.154 0.032,-0.215 -0.092,0 -0.214,0.153 -0.247,0.093 -0.059,-0.093 0.155,-0.123 0.094,-0.247 -0.032,-0.06 -0.46,0.306 -0.49,0.215 -0.031,-0.153 0.49,-0.366 0.396,-0.459 -0.09,-0.122 -0.46,0.275 -0.548,0.275 h -0.031 c -0.062,-0.061 0.215,-0.488 0.857,-0.581 z m 0.826,0.948 c 0,0.185 -1.193,0.643 -1.193,0.643 -0.063,0.031 0,0.063 -0.063,0.153 0,0.062 0.093,0.062 0.123,0.124 0,0.06 -0.154,0.06 -0.091,0.153 0.154,0.122 -0.062,0.214 -0.123,0.182 -0.062,-0.029 -0.216,-0.459 -0.278,-0.52 -0.027,-0.029 -0.058,-0.092 -0.058,-0.12 -0.032,-0.063 -0.032,-0.094 0.031,-0.124 0.243,-0.03 0.489,-0.063 0.732,-0.063 0.064,-0.182 0.706,-0.428 0.92,-0.428 z M 18.2,21.949 c 0.032,-0.245 1.162,-0.491 1.285,-0.552 0.275,-0.152 0.397,-0.305 0.489,-0.487 0.153,-0.277 0.123,-0.521 0.184,-0.614 0.152,-0.214 0.487,-0.519 1.041,-0.641 0.059,-0.031 0.334,-0.122 0.15,0.212 -0.122,0.154 -0.15,0.369 -0.214,0.55 0,0.093 0.123,0.277 0.245,0.521 0.032,0.063 0.091,0.122 0.123,0.184 0.093,0.183 0.182,0.399 0.182,0.55 -0.119,0.155 -1.895,1.287 -2.323,1.347 -0.337,0.062 -0.671,0 -1.07,-0.06 -0.06,-0.214 -0.123,-0.43 -0.123,-0.43 -0.032,-0.213 -0.032,-0.427 0.031,-0.58 z m -0.704,0.58 c 0.061,-0.121 0.245,-0.213 0.369,-0.213 0.059,0 0.091,0.091 0.122,0.213 0,0.154 0,0.338 -0.063,0.399 -0.088,0 -0.183,-0.032 -0.273,-0.061 0,0 0.059,-0.245 -0.184,-0.153 -10e-4,-0.062 -10e-4,-0.124 0.029,-0.185 z m 6.087,-2.294 c 0,0 0.063,-0.214 0.492,0.031 0.029,0.091 0.091,0.336 0.183,0.643 0,0.001 0.213,0.703 0.491,1.651 0.059,0.243 -0.062,0.367 -0.155,0.52 -0.613,0.55 -3.09,2.017 -3.394,2.203 -0.399,0.275 -1.072,0.427 -1.837,0.458 -1.927,0.092 -4.497,-0.368 -4.895,-0.672 0.489,-0.674 0.335,-1.286 0.305,-1.409 -0.243,-0.366 -0.519,-1.009 -0.611,-1.101 l 0.06,-0.062 c 3.672,0.765 5.081,0.826 5.141,0.765 0.52,-0.03 3.06,-1.651 4.037,-2.354 0.366,-0.245 0.58,-0.46 0.521,-0.584 -0.092,-0.12 -0.214,-0.089 -0.338,-0.089 z m -6.026,6.363 c 0.064,0.093 0.183,0.306 0.307,0.521 0.122,0.215 0.273,0.429 0.367,0.459 0.091,-0.094 -0.184,-0.276 0.06,-0.368 0.305,-0.061 0.338,0.795 1.13,0.519 0.184,0.215 0.612,0.122 0.858,0.186 0,0.03 -0.032,0.121 -0.064,0.121 -0.548,-0.061 -1.223,-0.031 -1.712,0.305 -0.09,0.062 0,0.215 -0.09,0.276 -0.123,-0.153 0,-0.336 0.09,-0.491 0.063,-0.121 0.399,-0.06 0.215,-0.243 0,0 -0.152,-0.122 -0.611,0.457 -0.061,-0.06 -0.061,-0.215 -0.154,-0.274 -0.398,0.092 -0.52,-0.397 -0.858,-0.458 -0.091,-0.061 0.063,-0.125 0,-0.216 -0.182,-0.123 -0.367,-0.214 -0.579,-0.274 -0.613,-0.184 -0.122,-0.461 -0.338,-0.553 -1.07,-0.336 -0.98,-0.61 -0.98,-0.61 0.062,-0.183 0.216,0.061 0.307,-0.06 -0.031,-0.062 -0.123,-0.092 -0.091,-0.185 0.153,-0.092 0.488,0.306 0.551,0.276 0.12,-0.092 -0.095,-0.214 0.06,-0.214 0.336,-0.062 1.163,0.918 1.377,0.979 0.06,-0.061 -0.032,-0.093 -0.032,-0.154 0.036,-0.031 0.126,-0.031 0.187,10e-4 z m -3.425,-1.743 c -0.215,-0.275 0.185,-0.98 -0.124,-0.98 -0.091,0.032 0,0.154 0,0.247 -0.122,0.305 -0.122,0.671 -0.396,0.885 -0.063,0 -0.063,-0.06 -0.033,-0.123 0.093,-0.274 0.215,-0.549 0.185,-0.855 -0.03,0 -0.151,-0.122 -0.151,0.214 0,0.245 -0.246,0.427 -0.275,0.672 0,0.092 -0.184,0.183 -0.306,0.183 0,-0.334 0.215,-0.581 0.215,-0.916 0.121,-0.185 0.152,0.091 0.152,0.091 0.062,-0.091 0.095,-1.193 -0.334,-1.406 -0.064,0.061 0.274,0.58 0.12,0.979 h -0.12 c -0.095,-0.704 -0.309,-1.101 -0.492,-1.285 -0.366,-0.399 -0.764,-0.215 -0.889,-0.244 0.063,-0.123 0.215,-0.214 0.339,-0.246 0.152,-0.03 0.336,0.032 0.549,0.123 0.276,0.092 0.521,0.276 0.644,0.305 0.03,-0.029 0.06,-0.091 0.03,-0.152 -0.063,-0.03 -0.093,-0.091 -0.063,-0.153 0.429,-0.244 1.564,1.622 1.348,2.234 -0.095,0.211 -0.185,0.396 -0.399,0.427 z M 1.621,21.672 c 0,0 -0.031,0.032 -0.031,0.063 -0.184,0.243 -0.308,0.274 -0.461,0.151 L 1.066,21.855 1.19,21.671 1.312,21.458 c 0.031,-0.062 0.153,-0.214 0.153,-0.243 0.03,0 0.092,0.03 0.124,0.03 0.121,0.091 0.121,0.244 0.032,0.427 z m 10.95,3.367 C 11.713,25.129 6.973,25.926 6.514,25.987 5.965,26.079 5.473,26.016 5.169,25.863 4.802,25.71 0.884,23.539 0.486,22.774 0.424,22.652 0.365,22.469 0.365,22.469 L 0.424,22.59 0.67,22.774 0.733,22.683 C 0.549,22.59 0.608,22.469 0.763,22.284 l 0.245,-0.306 c 0.058,0.031 0.028,0.183 0.028,0.338 L 0.947,22.959 1.282,23.172 1.344,23.08 C 1.282,23.049 1.282,23.018 1.282,22.927 l 0.062,-0.826 c 0.184,0.06 0.366,0 0.52,-0.215 0.059,-0.059 0.092,-0.151 0.092,-0.215 0.03,-0.09 0.03,-0.182 0,-0.243 C 1.894,21.335 1.772,21.244 1.71,21.183 L 1.435,21 1.16,20.815 1.099,20.91 c 0.154,0.091 0.092,0.212 -0.032,0.396 l -0.243,0.366 -0.305,0.43 c -0.063,0.091 -0.122,0.153 -0.153,0.214 0,0 0,0.03 0,0.06 C 0.335,22.254 0.335,22.161 0.397,22.102 0.701,21.55 0.824,20.91 0.977,20.326 1.036,20.175 1.161,20.204 1.221,20.175 1.16,20.236 1.16,20.326 1.19,20.418 c 0.062,0.093 0.795,0.584 1.683,1.104 1.437,0.886 3.241,1.926 3.304,1.866 0.245,0 1.558,-0.245 2.906,-0.459 1.346,-0.214 2.783,-0.429 3.121,-0.399 0.122,0 0.244,0.185 0.366,0.43 0.214,0.52 0.397,1.314 0.46,1.621 -0.062,0.517 -0.459,0.458 -0.459,0.458 z m -3.794,2.263 c -0.03,0 -0.03,0.063 -0.061,0.091 -0.091,0.185 -0.337,0.491 -0.551,0.551 -0.214,0.031 -0.335,-0.154 -0.366,0 -0.032,0.182 0.214,0.061 0.276,0.215 0.121,0.336 -0.184,0.52 -0.276,0.55 0.062,-0.673 -0.58,-0.734 -0.795,-0.764 0,0 -0.581,0.182 -0.52,-0.03 0,-0.216 0.52,-0.337 0.855,-0.522 0.033,-0.028 0.062,-0.028 0.093,-0.06 0.184,-0.49 0.732,-0.643 1.13,-0.826 0.153,0.058 0.428,0.244 0.734,-0.184 -0.12,-0.154 0.062,-0.215 0.123,-0.215 0.092,0 -0.032,0.092 0,0.153 0.182,0 0.246,-0.183 0.397,-0.183 0.094,-0.031 0.063,0.06 0.094,0.091 0.061,0.061 0.12,-0.031 0.183,0 0.091,0.032 -0.763,0.919 -1.316,1.133 z M 2.202,20.295 c 0.151,0.122 0.397,0.246 0.702,0.338 0.183,0.031 0.398,0.09 0.644,0.09 C 3.487,20.91 3.273,21.429 3.21,21.521 3.087,21.49 2.965,21.429 2.874,21.368 2.782,21.275 2.689,21.215 2.567,21.122 c -0.061,-0.031 0.122,-0.153 0,-0.243 0,-0.032 0.062,-0.064 0.062,-0.064 0.214,0.094 0.214,-0.06 0.153,-0.093 -0.367,-0.181 -0.704,-0.334 -1.072,-0.548 0.154,0.03 0.336,0.093 0.492,0.121 z m 0.549,-0.977 c 0.031,0 0.093,0.029 0.152,0.061 0.155,0.061 0.275,0.154 0.398,0.276 -0.03,0.092 -0.154,-0.093 -0.244,0 -0.062,0.061 0.366,0.275 0.302,0.427 -0.027,0.031 -0.242,-0.244 -0.274,-0.152 -0.09,0.152 -0.058,0.245 -0.152,0.397 0,0 -0.031,0 -0.06,0 -0.123,0 -0.245,0 -0.428,-0.059 0.001,-0.308 0.154,-0.707 0.306,-0.95 z m 4.865,2.998 c 0.092,0.03 0.275,0.122 0.397,0.213 0.123,0.123 0.246,0.216 0.215,0.246 0.031,0.06 -0.611,0.215 -0.826,0.244 0.062,-0.152 0.121,-0.305 0.152,-0.49 0.031,-0.06 0.031,-0.122 0.062,-0.213 z M 6.941,21.305 C 6.821,21.244 6.758,21.183 6.607,21.091 6.669,20.969 6.577,20.909 6.515,20.909 c -0.031,0.12 -0.152,0.182 -0.247,0.212 -0.058,0 -0.182,0 -0.214,-0.062 0.094,0 0.185,-0.03 0.214,-0.122 0,-0.091 0,-0.183 -0.058,-0.215 C 6.086,20.755 6.149,20.969 5.965,21 5.442,20.785 4.741,19.684 4.646,19.5 4.495,19.347 4.373,19.47 4.219,19.408 4.097,19.378 3.086,18.307 2.843,18.033 0.792,15.861 0.763,14.882 0.733,13.87 c 0,-0.305 -0.063,-0.609 -0.063,-0.916 0,-0.091 0,-0.183 0.03,-0.277 0.092,-0.183 0.366,0.185 0.46,0.277 0.488,0.581 1.101,2.049 1.315,2.784 0.031,0.091 0.062,0.214 0.092,0.306 0.062,0.277 0.122,0.52 0.184,0.766 C 2.599,16.717 2.537,16.504 2.446,16.351 2.415,16.258 2.352,16.321 2.292,16.321 2.23,16.227 2.17,16.136 2.138,16.044 1.621,15.126 1.281,14.146 1.036,13.139 L 0.947,13.077 c -0.123,0 0.062,0.825 0.428,1.712 -0.093,0 -0.153,-0.123 -0.245,-0.06 -0.031,0.337 0.735,1.009 0.826,1.346 0,0.03 0,0.06 0,0.091 0.459,0.612 0.795,1.286 1.162,1.928 0.123,0.213 0.368,0.334 0.459,0.55 0.062,0.062 0.181,0.031 0.213,0.154 0.126,0.183 0.185,0.365 0.398,0.456 0.155,0.033 0.186,0.063 0.216,-0.06 0,-0.123 -0.092,-0.213 -0.092,-0.367 0.062,0.154 0.184,0.214 0.304,0.277 l 0.277,-0.092 c 0.092,0.151 -0.062,0.306 -0.062,0.459 0.247,0.305 0.858,1.193 0.98,1.04 0.184,-0.244 0.305,0.276 0.429,0 C 6.3,20.389 6.211,20.267 6.116,20.236 5.719,20.358 5.719,19.838 5.536,19.655 5.322,19.255 5.291,18.768 4.955,18.429 4.616,17.971 4.403,17.482 4.005,17.115 c -0.06,-0.06 0,-0.214 0.093,-0.245 0.214,0.031 0.122,0.428 0.368,0.428 0.122,0 0.06,-0.336 0.214,-0.397 -0.064,0.428 0.335,1.377 0.916,1.713 0.062,0.062 0.154,0.153 0.123,0.243 -0.029,0.064 -0.091,-0.031 -0.123,0 -0.06,0.155 0.154,0.184 0.154,0.277 0,0.673 1.804,2.63 3.18,2.875 0.032,0.061 0.094,0.093 0.154,0.123 0.121,0.06 0.336,0.06 0.275,0.306 0.062,0.031 0.154,0.091 0.154,0.183 -0.182,0.062 -0.307,0.062 -0.428,0.031 -0.183,0 -0.337,-0.062 -0.428,-0.123 C 8.473,22.469 7.096,21.336 6.941,21.305 Z M 2.689,15.616 c 0.061,0.031 0.214,0.214 0.339,0.46 0.058,0.122 0.12,0.275 0.181,0.398 L 3.178,16.902 H 3.118 C 3.028,16.627 2.934,16.351 2.843,16.076 2.814,15.921 2.751,15.769 2.689,15.616 Z M 2.415,9.652 c -0.03,0.274 0.031,0.58 -0.122,0.855 -0.122,0.214 0.028,0.519 -0.185,0.704 0.031,-0.428 0.094,-1.102 0.185,-1.559 0,0 0.06,-0.245 0.521,-1.562 C 3.029,8.427 2.69,9.253 2.538,9.315 2.476,9.407 2.446,9.529 2.415,9.652 Z M 2.078,12.647 C 1.804,12.741 1.649,12.158 1.649,12.158 1.066,10.231 0.977,7.813 2.078,6.072 2.108,6.04 2.629,4.849 3.087,4.42 c 0.062,0 0.062,0.059 0.092,0.122 0.063,0.427 -0.151,1.407 -0.183,1.53 -0.122,0.58 -0.734,2.999 -0.918,3.58 -0.06,0.274 -0.122,0.52 -0.155,0.794 -0.119,-0.122 0,-0.306 0,-0.459 C 1.832,9.16 2.537,6.498 2.66,6.072 2.814,5.702 2.934,5.338 2.996,4.908 L 2.903,5.001 C 2.814,5.368 2.66,5.735 2.537,6.103 2.108,7.326 1.649,8.58 1.71,9.987 1.527,10.721 1.558,11.547 1.804,12.22 2.385,12.772 2.138,11.884 2.231,11.578 2.262,11.333 2.476,11.12 2.415,10.842 2.446,10.446 2.537,10.108 2.72,9.772 2.66,9.742 2.63,9.712 2.599,9.652 2.599,9.589 2.599,9.498 2.63,9.407 2.904,9.252 3.029,8.396 3.21,8.396 3.21,8.302 3.272,8.211 3.21,8.121 3.119,8.151 2.997,8.211 2.965,8.059 3.059,7.722 2.996,7.325 3.302,7.11 c 0,0 0,-0.182 0.428,-0.672 0,0.244 -0.671,1.039 -0.551,1.408 C 3.21,7.906 3.272,7.878 3.333,7.878 3.455,7.814 3.455,7.54 3.638,7.569 3.638,7.754 3.241,7.938 3.576,8.06 4.096,7.754 4.218,7.234 4.218,7.234 4.343,6.715 4.587,6.408 4.83,6.072 5.473,5.031 6.209,4.478 6.758,4.143 6.85,4.052 6.973,4.083 6.973,4.205 c 0,0.06 -0.092,0.337 -0.214,0.152 -0.397,0.307 -1.103,1.255 -1.438,1.715 0,0 -0.185,0.09 -1.134,1.651 C 4.035,7.968 3.821,8.243 3.547,8.335 3.515,8.303 3.455,8.243 3.424,8.303 3.392,8.366 2.964,9.498 2.66,10.599 2.506,11.15 2.385,11.701 2.353,12.098 c 0,0.122 -0.032,0.245 0.062,0.337 0.336,-0.214 0.399,-0.58 0.581,-0.887 0.032,-0.029 0.09,0 0.09,0.031 -0.152,0.337 -0.183,1.07 -0.672,1.008 0,0.062 -0.03,0.185 -0.03,0.368 0,0.337 0.03,0.765 0.245,1.072 0.06,0.06 0.335,1.438 0.672,1.803 0.059,0.092 0.032,0.154 0,0.184 0,0 -0.03,0.062 -0.06,0.092 C 3.178,16.045 3.148,16.014 3.118,15.953 2.934,15.707 2.813,15.402 2.689,15.096 2.689,15.005 2.781,14.974 2.75,14.913 2.628,14.822 2.536,14.76 2.505,14.667 2.474,14.546 2.718,14.577 2.659,14.453 2.566,14.302 2.261,14.453 2.292,14.239 2.32,13.78 2.201,13.384 2.107,12.955 2.108,12.863 2.078,12.741 2.078,12.647 Z M 4.892,2.921 C 5.29,2.4 5.656,2.095 5.902,1.94 c 0,0 0.213,-0.121 0.337,-0.152 0,0.031 0,0.092 0,0.152 C 6.21,2.248 6.115,2.583 5.965,2.92 5.504,4.082 4.587,5.428 4.035,6.102 3.945,6.224 3.853,6.315 3.79,6.377 3.79,6.286 3.821,6.194 3.853,6.103 4.068,5.339 4.925,3.838 5.536,2.921 5.628,2.769 5.75,2.615 5.841,2.492 5.965,2.277 6.178,2.034 6.054,2.003 5.933,2.034 5.81,2.216 5.749,2.339 5.627,2.492 5.442,2.706 5.29,2.921 4.679,3.869 3.945,5.368 3.638,6.072 3.577,6.224 3.547,6.346 3.515,6.408 3.424,6.53 3.393,6.652 3.302,6.745 3.361,6.53 3.424,6.286 3.486,6.072 3.916,4.571 4.434,3.563 4.892,2.921 Z M 7.339,1.94 C 8.687,0.625 10.553,0.258 10.642,0.289 V 0.35 C 10.184,0.87 9.696,1.359 9.115,1.696 9.022,1.758 8.869,1.88 8.747,1.94 8.378,2.185 7.799,2.431 7.677,2.492 c -0.031,0 -0.061,0 -0.061,-0.06 0,-0.031 0.275,-0.246 0.611,-0.491 C 8.746,1.574 10.123,0.749 10.184,0.565 9.42,0.933 8.687,1.421 7.982,1.94 7.83,2.063 7.646,2.186 7.493,2.309 7.493,2.277 7.464,2.248 7.433,2.216 7.34,2.216 6.973,2.615 6.728,2.921 6.636,3.042 6.544,3.135 6.484,3.195 6.484,3.103 6.545,3.011 6.607,2.921 6.606,2.889 6.881,2.309 7.339,1.94 Z M 6.392,3.503 C 6.422,3.38 6.636,3.135 6.881,2.921 7.155,2.675 7.372,2.554 7.433,2.584 7.433,2.675 7.372,2.769 7.188,2.921 7.035,3.074 6.822,3.227 6.728,3.257 6.696,3.41 6.422,3.595 6.392,3.503 Z M 6.636,3.96 C 6.606,3.991 6.054,4.388 6.054,4.297 6.054,4.175 6.821,3.654 6.636,3.96 Z M 5.965,4.358 C 5.473,4.786 4.955,5.49 4.526,6.103 c 0,0 -0.399,0.58 -0.673,1.07 0,0 -0.032,0 -0.094,-0.093 C 3.79,6.99 4.035,6.591 4.374,6.073 4.955,5.215 5.781,4.083 5.934,3.808 6.025,3.746 6.149,3.715 6.21,3.686 6.115,3.93 5.933,4.083 5.781,4.297 5.871,4.328 5.902,4.328 5.965,4.358 Z M 11.196,1.329 C 11.103,1.544 10.704,1.912 10.614,1.94 10.276,2.248 9.634,2.645 9.115,2.951 8.715,3.165 8.348,3.348 8.259,3.379 8.195,3.41 7.86,3.288 8.378,2.982 8.411,2.952 8.441,2.952 8.504,2.921 c 0.335,-0.152 1.069,-0.612 1.65,-0.98 0.337,-0.183 0.611,-0.367 0.795,-0.458 0,0 0,-0.062 -0.031,-0.062 C 10.674,1.515 10.275,1.697 9.847,1.94 9.296,2.216 8.686,2.583 8.134,2.92 7.646,3.227 7.248,3.503 7.003,3.686 6.972,3.715 6.94,3.746 6.91,3.746 6.88,3.808 6.758,3.838 6.696,3.777 6.758,3.654 6.91,3.622 7.003,3.532 7.154,3.348 7.401,3.134 7.677,2.951 8.165,2.553 8.777,2.185 9.235,1.94 9.512,1.788 11.103,1.054 11.196,1.329 Z M 7.248,3.899 C 7.248,3.837 7.279,3.777 7.309,3.714 7.493,3.44 7.891,3.227 7.83,3.532 7.799,3.595 7.736,3.654 7.646,3.686 7.493,3.808 7.309,3.899 7.248,3.899 Z m -1.224,7.71 h 0.03 l 2.693,1.099 0.887,0.338 c 0.031,0 0.062,0.059 0.031,0.123 l -0.919,1.497 -1.101,1.807 c 0,0.031 0,0.031 -0.061,0 C 6.82,15.401 6.298,14.21 6.115,12.954 6.054,12.527 6.024,12.067 6.024,11.609 Z M 4.25,16.288 c 0.031,-0.062 0.092,-0.153 0.123,-0.213 0.06,-0.062 0.092,-0.123 0.182,-0.184 -0.03,0.061 -0.03,0.122 -0.03,0.184 -0.03,0.213 -0.092,0.398 -0.123,0.641 C 4.311,16.839 4.159,16.473 4.25,16.288 Z M 4.005,16.075 c 0,0 0.03,-0.246 0.093,-0.552 l 0.306,-0.672 c 0.457,0.06 -0.153,1.069 -0.244,1.224 -0.062,0.091 -0.125,0.152 -0.155,0.152 -0.031,0 -0.031,-0.061 0,-0.152 z m -0.519,0 C 3.609,15.492 3.821,14.943 3.974,14.729 3.916,14.484 4.403,13.658 4.615,13.475 l 0.031,0.03 c 0.063,0.979 -0.672,1.622 -0.825,2.508 0,0.031 0,0.031 0,0.062 -0.092,0.52 -0.335,1.07 -0.152,1.591 0.06,0.12 0.305,0.12 0.458,-0.062 0.185,0.276 0.092,0.674 0.154,0.979 L 4.25,18.614 C 4.067,18.644 4.067,18.033 4.004,17.971 3.944,17.971 3.915,18.094 3.729,17.94 3.333,17.575 3.333,16.778 3.486,16.075 Z M 3.79,14.332 c 0,0.119 -0.031,0.274 -0.12,0.274 C 3.61,14.635 3.516,14.576 3.516,14.514 3.424,14.269 3.758,14.301 3.79,14.332 Z m 0.429,-3.734 -0.092,0.521 -0.611,0.152 v 1.314 c 0,0 -0.182,-0.059 -0.337,-0.091 C 3.087,12.066 3.148,11.822 3.148,11.822 3.209,11.546 3.455,11.24 3.758,10.997 3.852,10.935 3.974,10.782 4.067,10.598 4.127,10.507 4.187,10.415 4.25,10.324 Z M 5.688,6.132 C 5.535,6.439 5.228,6.745 4.955,6.837 5.17,6.499 5.474,6.103 5.474,6.103 5.841,5.612 6.33,4.969 6.606,4.602 l 0.09,-0.06 C 6.821,4.816 6.299,5.765 5.688,6.132 Z M 6.514,6.072 6.33,6.255 C 6.299,6.224 6.299,6.163 6.299,6.103 6.362,5.918 6.696,5.643 6.758,5.551 L 6.85,5.796 Z M 3.272,10.568 C 3.334,9.071 5.718,6.287 6.115,6.255 c 0.399,0 -0.856,2.663 -1.65,3.365 -0.246,0.337 -0.581,0.643 -0.827,0.979 -0.029,0.093 -0.091,0.215 -0.123,0.306 -0.029,0.03 -0.06,0.061 -0.123,0.061 0,-0.091 0.032,-0.214 0.123,-0.368 C 3.916,9.62 5.442,7.54 5.933,6.745 c 0,0 0.061,-0.123 -0.062,-0.093 0,0 -1.041,0.949 -2.479,3.947 l -0.214,0.46 -0.06,0.061 c 0.03,-0.185 0.03,-0.399 0.154,-0.552 z m -0.428,0.03 C 3.059,9.407 3.609,8.457 3.885,8.366 3.917,8.548 3.73,8.732 3.61,8.886 3.394,9.437 3.211,10.018 3.029,10.599 2.966,10.905 2.875,11.211 2.814,11.518 l -0.032,-0.03 c 0,-0.308 0.032,-0.613 0.062,-0.89 z M 2.72,13.015 c 0.124,0.032 0.154,0 0.184,-0.06 0.031,-0.063 0.061,-0.154 0.093,-0.183 0.276,0 0.642,-0.03 0.793,0.151 0,0.032 0,0.032 0,0.032 0.095,0.274 0.095,0.52 0.155,0.765 0.06,0.307 -0.673,0.399 -0.703,0.613 0.031,0.334 0.245,0.64 0.119,1.008 C 3.272,15.004 2.996,14.636 2.965,14.238 2.66,13.627 2.689,13.228 2.72,13.015 Z m 2.815,-0.061 c 0.031,-0.246 0.031,-0.397 0,-0.49 L 5.504,12.403 c -0.031,0.03 -0.09,0.244 -0.122,0.551 -0.123,1.01 -0.213,3.059 -0.123,4.13 0,0.152 0.031,0.642 -0.031,0.642 H 5.137 C 4.985,17.543 5.107,17.298 5.045,17.055 4.955,16.746 4.893,16.412 4.831,16.075 c 0,-0.062 0,-0.123 0,-0.184 -0.274,-0.427 -0.06,-1.959 0.247,-2.937 0.151,-0.521 0.305,-0.887 0.427,-0.857 0.184,0.031 0.306,0.398 0.367,0.857 0.094,0.794 0,1.928 -0.183,2.172 -0.032,0.365 -0.061,0.765 -0.122,1.131 0,0.123 0.09,0.247 -0.093,0.247 -0.059,0 -0.032,-0.154 0,-0.216 -0.246,-0.275 -0.001,-2.356 0.061,-3.334 z m 5.323,9.362 c 0.032,0.03 -0.029,0.091 -0.092,0.122 0,0 -0.091,0.031 -0.642,-0.092 C 9.848,22.285 9.451,21.917 9.297,21.979 9.236,21.979 9.177,21.95 9.084,21.917 8.716,21.795 8.196,21.397 8.075,21.305 8.013,21.275 8.228,20.879 8.777,20.969 8.901,21 9.084,21.06 9.084,21.06 c 0.428,0.155 1.285,0.552 1.774,1.256 z m 6.485,-1.745 c -0.275,0 -1.315,0.429 -1.958,0.734 -0.275,0.091 -0.457,0.184 -0.52,0.216 -0.368,0.151 -0.398,0.428 -0.674,0.672 -0.244,0.03 -0.428,0.062 -0.613,-0.123 -0.15,-0.243 -0.641,-0.121 -0.701,-0.092 -0.124,0.092 -0.217,0.031 -0.307,0 -0.091,-0.062 -0.184,-0.123 -0.305,-0.123 -0.276,0.031 -0.613,0.031 -0.796,0.277 -0.122,0.091 -0.488,0.122 -0.704,-0.246 C 10.368,21.368 9.601,21 9.083,20.847 8.869,20.756 8.687,20.723 8.624,20.695 8.44,20.664 8.135,20.664 7.829,21.215 6.208,20.295 6.053,18.827 6.053,18.827 5.688,18.095 5.656,18.034 5.656,18.034 l 0.643,-0.247 0.551,0.551 -0.244,0.583 1.254,0.917 0.518,-0.398 0.674,0.336 -0.029,0.641 1.499,0.492 0.336,-0.552 0.766,0.123 0.154,0.641 h 1.589 l 0.152,-0.641 0.766,-0.123 0.335,0.552 1.501,-0.492 -0.032,-0.641 0.674,-0.336 0.521,0.398 1.252,-0.917 -0.243,-0.583 0.552,-0.551 0.519,0.185 c 0,0 0.123,0.062 -0.459,0.704 0,0 -0.245,1.253 -1.224,2.325 -0.124,-0.122 -0.153,-0.368 -0.338,-0.43 z m -2.845,1.683 c 0,-0.184 0.183,-0.368 0.337,-0.459 0.152,-0.091 0.612,-0.306 1.071,-0.49 0.46,-0.152 1.469,-0.764 1.561,-0.245 0.029,0.093 -0.031,0.185 -0.092,0.245 -0.031,0 -0.031,0 -0.063,0 -0.244,0.031 -0.519,0.184 -0.826,0.124 -0.183,0.092 -0.945,0.764 -1.253,0.825 -0.122,0.062 -0.304,0.091 -0.245,-0.093 -10e-4,-0.183 -0.399,0.093 -0.49,0.093 z m 7.312,-10.31 c 0,0.093 0,0.428 -0.187,0.459 v -1.039 c 0,0 0.338,0 0.156,0.273 0.001,0.155 0.031,0.307 0.031,0.307 z m -1.254,3.611 c 0.031,-0.183 0,-0.397 0.122,-0.52 0,-0.062 0,-0.092 -0.06,-0.123 -0.092,0.031 -0.185,0.368 -0.216,0.429 -0.152,-0.183 -0.027,-0.52 -0.152,-0.734 0,-0.122 0,-0.246 0,-0.368 0.032,-0.489 0.152,-0.976 -0.151,-1.347 0,-0.12 -0.123,-0.638 -0.155,-0.794 -0.06,-0.029 -0.09,0.031 -0.09,0.062 0,0.153 0.122,0.732 0.152,0.888 -0.123,-0.061 -0.337,-0.155 -0.459,-0.061 -0.091,-0.122 -0.123,-0.277 -0.123,-0.4 l -0.06,-0.366 c 0.214,-0.122 0.274,-0.305 0.456,-0.428 0.124,0.031 0.156,0.184 0.34,0.152 0.09,-0.03 0.183,-0.121 0.215,0 0.09,0.215 -0.094,0.428 -0.063,0.613 0,0.029 0,0.06 0.031,0.09 l 0.183,-0.062 c 0.061,0.062 0.092,0.156 0.031,0.246 -0.092,0.365 0.336,0.734 0.09,0.917 -0.272,0.184 -0.153,0.552 -0.12,0.644 0.214,-0.032 0.245,-0.338 0.46,-0.246 0.09,0.092 0.336,1.101 -0.063,1.285 -0.245,0.184 -0.152,0.582 -0.397,0.796 -0.064,-0.153 0.029,-0.612 0.029,-0.673 z m -0.428,-1.866 c 0.062,0 0.031,0.307 0,0.549 -0.031,0.063 -0.031,0.122 -0.031,0.154 -0.033,0 -0.063,-0.06 -0.092,-0.154 0,-0.06 -0.031,-0.58 0.123,-0.549 z m -1.072,-1.132 c -0.153,1.345 -0.674,2.63 -1.499,3.764 -0.029,0 -0.029,0 -0.061,-0.032 l -2.018,-3.274 c -0.031,0 -0.031,-0.06 0.031,-0.124 l 2.327,-0.947 1.283,-0.519 c 0,0 0,0.03 0,0.062 -0.001,0.366 -0.001,0.732 -0.063,1.07 z m 0.46,1.253 c 0.03,-0.062 0.12,-0.062 0.091,-0.122 -0.061,-0.092 -0.031,-0.153 -0.244,-0.214 -0.215,-0.062 -0.154,-0.369 -0.091,-0.428 0.091,0.092 0.214,0.123 0.336,0.092 0.183,-0.092 0.306,0.183 0.246,0.274 -0.123,0.185 0.06,0.427 -0.154,0.552 0,0.09 0.031,0.182 0.031,0.274 0.06,0.186 0.088,0.398 -0.094,0.521 -0.182,-0.123 0.094,-0.366 -0.12,-0.49 0,-0.031 0,-0.031 0,-0.031 -0.062,-0.152 -0.001,-0.306 -0.001,-0.428 z m 0.795,2.142 c 0.031,0.061 0,0.123 0,0.184 -0.337,-0.153 -0.247,-0.337 -0.581,-0.337 -0.062,0 -0.062,0.063 -0.031,0.092 0.243,0.092 0.49,0.336 0.55,0.613 -0.059,0.091 -0.151,0.151 -0.243,0.122 -0.215,-0.46 -0.613,-0.275 -0.643,-0.428 0.029,-0.214 0.029,-0.459 0.092,-0.674 0.061,-0.429 0.58,-0.641 0.643,-0.888 0.119,0.153 0.119,0.795 0.119,0.919 0,0.151 -0.028,0.274 0.094,0.397 z m 1.775,-2.813 c -0.031,0.09 -0.306,-0.092 -0.462,-0.062 -0.333,0.244 -0.181,0.612 -0.153,0.949 -0.151,-0.062 -0.397,-0.186 -0.425,-0.277 -0.033,-0.305 0.06,-0.643 0.182,-0.857 0.122,-0.244 0.917,0.186 0.764,-0.947 0,-0.03 0,-0.061 0,-0.091 0.032,0.03 0.063,0.061 0.093,0.091 0.244,0.336 0.093,0.826 10e-4,1.194 z M 7.86,4.695 8.318,5.061 9.42,4.511 9.388,3.93 10.369,3.595 10.704,4.115 11.897,3.9 12.051,3.349 h 1.041 l 0.153,0.551 1.191,0.215 0.337,-0.52 0.981,0.335 -0.032,0.581 1.102,0.551 0.458,-0.366 0.854,0.611 -0.243,0.551 0.703,0.673 c 0.094,0.55 0.276,0.948 0.276,0.948 0,0 0.183,0.552 0.612,0.491 l -0.276,0.243 c 0.581,1.683 1.347,2.143 1.347,2.143 l 0.152,1.01 0.583,0.153 v 1.04 c 0,0 -0.306,0.275 -0.369,1.04 -0.214,-0.826 -0.245,-1.011 -0.245,-1.011 -0.152,-1.314 -0.859,-1.099 -1.132,-0.917 -0.03,0.031 -0.091,0.092 -0.154,0.184 0,-0.123 0,-0.244 0,-0.366 0,-0.092 -0.029,-0.154 -0.059,-0.216 -0.092,-0.123 -0.245,-0.152 -0.368,-0.091 l -1.836,0.764 -1.712,0.703 c -0.032,0.03 -0.093,0.03 -0.124,0.094 -0.123,0.122 -0.123,0.305 -0.031,0.428 l 2.021,3.304 c 0.06,0.058 0.153,0.122 0.245,0.122 0.093,0 0.182,-0.064 0.243,-0.122 0.675,-0.918 1.133,-1.928 1.407,-2.998 0,0.061 0.185,0.245 0.155,0.763 0.059,0.246 0.243,0.582 -0.031,0.92 -0.031,0.06 -0.093,0.214 -0.093,0.397 -0.062,0.215 -0.091,0.49 -0.121,0.581 -0.062,0.305 0.794,0.46 0.825,0.674 l -0.58,0.794 -0.552,-0.214 -0.887,0.856 0.243,0.552 -0.854,0.611 -0.458,-0.368 -1.102,0.551 0.032,0.582 -0.981,0.336 -0.337,-0.521 -1.191,0.215 -0.153,0.582 H 12.05 L 11.896,20.206 10.703,19.991 10.368,20.512 9.387,20.176 9.419,19.594 8.318,19.043 7.86,19.409 7.035,18.798 7.248,18.246 6.392,17.39 5.81,17.604 5.567,17.236 c 0.183,-0.397 0.519,-2.844 0.457,-3.334 0.276,0.98 0.734,1.897 1.348,2.724 0.03,0.061 0.092,0.091 0.182,0.12 0.124,0.032 0.277,-0.03 0.337,-0.151 L 8.777,15.158 9.88,13.321 C 9.911,13.291 9.941,13.228 9.941,13.197 9.972,13.014 9.88,12.863 9.727,12.8 L 8.747,12.403 6.116,11.332 c -0.092,-0.03 -0.182,0 -0.244,0.063 -0.091,0.03 -0.122,0.121 -0.122,0.213 0,0.152 0,0.305 0,0.428 C 5.657,11.882 5.442,11.852 5.291,12.005 5.17,12.158 4.985,12.616 4.803,12.953 4.68,13.168 4.588,13.352 4.526,13.32 L 4.466,12.953 4.434,12.74 3.853,12.584 V 11.545 L 4.434,11.394 4.556,10.597 4.616,10.171 4.434,10.048 C 4.588,9.833 6.178,8.183 6.239,6.836 L 7.003,6.072 7.248,5.857 7.035,5.306 Z M 18.477,3.777 C 18.445,3.715 18.381,3.654 18.322,3.595 18.231,3.472 18.137,3.318 18.199,3.135 18.504,2.982 18.136,2.615 18.35,2.432 19.025,1.82 19.146,2.063 19.146,2.063 19.239,2.248 19.332,2.4 19.391,2.584 19.485,2.736 19.73,2.4 19.73,2.4 c 0.06,0.122 0.123,0.245 0.183,0.397 0.062,0.154 0.336,0.124 0.304,0.337 -0.058,0.183 -0.242,0.245 -0.089,0.398 0.062,0.09 0.089,0.214 0.246,0.183 0.119,-0.093 0.027,-0.427 0.243,-0.336 0.028,0.061 0.06,0.153 0.091,0.216 0.092,0.12 0.124,0.243 0.305,0.365 0.246,0.123 -0.213,0.519 -0.12,0.704 0.154,0.214 0.03,0.582 -0.123,0.765 -0.183,0.154 -0.245,-0.52 -0.124,-0.827 0,-0.031 0,-0.091 -0.059,-0.091 C 20.464,4.602 20.493,4.817 20.401,4.909 19.882,3.838 19.699,3.288 19.699,3.288 19.546,3.349 19.668,3.533 19.668,3.654 19.333,3.288 19.056,2.89 18.659,2.584 c 0,-0.061 -0.029,-0.03 -0.092,-0.03 -0.122,0.03 0.366,0.55 0.704,0.979 -0.124,-0.03 -0.245,-0.092 -0.367,0 0.062,0.154 0.243,0.063 0.337,0.122 0.366,0.246 0.641,0.643 0.857,0.981 V 4.787 C 19.943,4.756 19.791,4.603 19.637,4.696 19.7,4.817 19.853,4.85 19.975,4.879 20.312,5.124 20.525,5.462 20.587,5.827 20.526,5.889 20.464,5.889 20.401,5.889 20.281,5.703 20.064,5.643 20.035,5.429 19.913,5.275 19.79,5.092 19.577,5.092 c -0.091,0.062 -0.243,0.154 -0.305,0 -0.338,-0.214 0,-0.642 -0.398,-0.795 -0.183,-0.153 -0.369,-0.276 -0.397,-0.52 z m 0.274,1.072 C 18.567,4.542 18.169,4.42 18.047,4.083 17.985,3.622 17.679,3.715 17.495,3.686 17.466,3.654 17.435,3.622 17.405,3.595 17.282,3.44 17.222,3.288 17.097,3.135 17.129,3.011 17.311,2.89 17.251,2.736 16.977,2.492 17.097,1.728 17.74,1.88 c 0.183,0.032 0.339,-0.152 0.521,-0.061 0.09,0.093 0.458,0.184 -0.029,0.49 -0.063,0 -0.123,-0.123 -0.184,-0.032 C 18.08,2.4 18.109,2.522 18.017,2.614 17.803,2.492 17.65,2.247 17.406,2.185 c -0.032,0 -0.063,0.062 -0.032,0.092 0.183,0.215 0.581,0.276 0.581,0.644 -0.061,0.153 -0.305,-0.06 -0.275,0.121 0.06,0.062 0.155,0.032 0.214,0.062 0.029,0.185 0.061,0.337 0.092,0.492 0.093,0.182 0.183,0.365 0.396,0.488 0.123,0.305 0.462,0.488 0.462,0.886 C 18.751,5.001 18.781,4.878 18.751,4.849 Z M 16.088,1.544 C 15.569,1.483 15.11,1.023 15.016,0.963 L 14.928,1.146 C 14.619,1.085 13.947,0.594 13.977,0.84 c 0,0.153 0.735,0.369 0.951,0.581 0.088,-0.03 0.182,-0.092 0.273,0.03 -0.031,0.122 -0.305,0.031 -0.184,0.183 0.401,-0.03 0.767,0.063 1.133,0.123 0.183,0.062 -0.244,0.277 -0.244,0.369 0,0.09 0.183,0 0.275,-0.063 0.338,-0.213 0.277,0 0.49,-0.06 0.122,0 0.213,0 0.245,0.092 -0.091,0.214 0,0.458 -0.032,0.702 C 16.397,2.768 16.611,2.461 16.458,2.492 16.273,2.554 16.059,2.584 15.845,2.614 15.693,2.277 15.325,2.522 15.111,2.308 14.957,2.033 15.356,2.215 15.386,2.125 15.324,1.756 14.589,1.911 14.468,1.848 14.346,1.665 14.316,1.327 14.008,1.327 c -0.091,0 -0.183,-0.06 -0.244,-0.152 -0.151,-0.155 -0.03,-0.674 0.244,-0.643 0.154,0 0.338,0.337 0.46,0.03 0,-0.09 0,-0.244 0.121,-0.275 0.307,-0.062 0.398,0.427 0.704,0.305 0.153,-0.03 0.153,0.306 0.365,0.245 0.096,-0.123 0.215,-0.184 0.339,-0.123 0.183,0.032 0.245,0.246 0.399,0.276 0.122,0.122 0.365,0.092 0.487,0.216 0.062,0.029 0.093,0.09 0.062,0.212 0.152,0.183 0.49,-0.184 0.461,0.245 -0.215,0.091 -0.123,0.304 -0.522,0.214 -0.337,-0.031 -0.641,-0.429 -0.855,-0.643 -0.124,0.035 0.059,0.249 0.059,0.31 z m 6.977,16.427 c 0.213,-0.245 1.192,-1.407 1.13,-2.05 0.093,-0.092 0.857,-0.794 0.736,-2.142 0.153,-0.213 0.274,-0.426 0.304,-0.673 0.155,-0.274 0.031,-0.489 0,-0.794 -0.03,-0.183 -0.119,-0.274 -0.272,-0.367 -0.184,-0.03 -0.889,-0.855 -1.348,-0.427 0.58,-1.162 0.704,-1.591 0.704,-1.591 C 24.38,9.53 24.165,9.316 24.075,9.04 24.227,8.611 23.952,7.907 23.829,7.45 23.798,7.388 23.798,7.297 23.798,7.236 23.432,6.868 23.707,6.348 23.432,5.919 23.4,5.796 22.94,4.94 22.698,4.695 22.543,4.571 22.36,4.42 22.268,4.235 22.239,3.99 21.992,4.052 21.81,4.052 21.412,3.99 21.227,3.653 21.199,3.595 20.769,3.011 20.097,2.277 19.729,2.034 19.484,1.849 19.146,1.666 18.629,1.604 18.047,1.237 17.62,1.237 17.527,1.208 17.311,1.114 15.997,0.165 14.986,0.075 c -1.65,-0.153 -1.59,0.887 -1.621,1.133 0.458,0.825 0.98,0.918 0.98,0.918 0.335,0.059 0.582,0.457 0.916,0.548 0.307,0.122 1.316,0.52 1.437,0.582 0.184,0.061 0.278,0.183 0.339,0.338 0.122,0.182 0.213,0.365 0.457,0.335 0,0 0.125,0.03 1.224,1.254 -0.184,0.305 -0.06,0.367 -0.06,0.367 0,0 0.185,0.061 0.214,0.764 H 18.811 L 18.26,5.764 18.503,5.183 17.249,4.265 16.76,4.663 16.056,4.327 16.087,3.685 14.62,3.195 14.255,3.746 13.492,3.622 13.337,3.011 H 11.745 L 11.593,3.622 10.828,3.746 10.491,3.195 8.991,3.686 9.022,4.328 8.348,4.664 7.86,4.266 7.124,4.786 c 0,0 0.124,-0.307 0.215,-0.52 C 7.155,4.115 7.401,3.96 7.522,3.96 7.798,3.991 8.012,3.838 8.227,3.715 8.318,3.654 9.388,3.195 9.727,2.951 9.941,2.797 10.154,2.645 10.276,2.584 10.614,2.432 10.857,2.216 11.042,1.941 11.225,1.729 11.348,1.515 11.498,1.3 c 0,-0.09 0.033,-0.185 -0.059,-0.245 -0.397,-0.061 -0.735,0.124 -1.1,0.155 L 10.276,1.147 C 10.459,0.841 11.009,0.29 10.95,0.137 10.828,-0.107 10.553,0.046 10.339,0.076 8.378,0.41 7.064,1.94 7.064,1.94 6.821,2.185 6.576,2.431 6.514,2.553 6.483,2.583 6.392,2.645 6.362,2.583 6.452,2.276 6.452,2.062 6.452,1.94 c 0,0 0,-0.306 -0.09,-0.367 C 6.209,1.36 5.781,1.634 5.473,1.94 5.259,2.095 4.741,2.674 4.587,2.92 4.187,3.471 3.821,4.052 3.609,4.694 3.577,4.786 3.577,4.94 3.424,4.969 3.392,4.754 3.424,4.42 3.272,4.235 3.118,4.083 2.903,4.175 2.751,4.297 2.537,4.571 2.108,5.154 1.679,6.072 1.282,6.958 0.853,8.122 0.824,9.589 c -0.031,1.621 0.918,3.302 0.948,3.365 0.032,0.092 0.06,0.184 0,0.274 -0.062,-0.123 -0.123,-0.182 -0.214,-0.274 0,0 -0.429,-0.551 -0.825,-0.765 -0.215,0 -0.278,0.122 -0.309,0.276 -0.028,0.121 -0.059,0.306 -0.059,0.49 -0.031,1.132 0.274,2.907 0.733,3.396 0.308,0.641 2.235,2.812 2.969,3.242 0.674,0.397 0.947,1.102 1.499,1.622 0.151,0.09 0.549,0.335 1.13,0.426 0.125,0.094 0.583,0.123 0.676,0.52 C 7.339,22.284 7.309,22.407 7.309,22.528 7.248,22.713 7.187,22.895 7.064,23.08 6.422,23.232 6.085,23.203 5.718,23.018 5.169,22.682 4.496,22.284 3.945,21.948 3.148,21.52 3.456,21.457 3.548,21.244 3.67,20.879 3.945,20.541 3.885,20.112 3.854,19.684 2.997,19.162 2.904,19.071 2.72,18.98 2.568,18.92 2.538,19.103 2.447,19.439 2.353,19.775 2.232,20.112 1.528,19.684 0.948,19.837 0.734,20.174 c -0.033,0.243 -0.492,1.653 -0.706,2.11 -0.123,0.306 0.185,0.825 0.428,1.162 0.124,0.184 3.732,3.029 5.906,3.029 0.274,0 1.682,-0.338 2.049,-0.398 0.03,0 0.093,0.03 0.062,0.091 -0.308,0.396 -0.95,0.396 -1.194,0.919 -0.154,0.09 -0.338,0.214 -0.488,0.305 -0.277,0.155 -0.524,0.306 -0.826,0.336 -0.276,0.061 -0.644,0.122 -0.644,0.276 0.152,0.49 1.56,0.919 1.803,0.979 0.398,0.123 0.766,-0.032 1.071,-0.305 0.123,-0.124 0.215,-0.612 0.551,-0.643 0.154,-0.121 0.429,-0.366 0.735,-0.643 0.335,-0.274 1.682,-1.314 1.929,-1.376 0.213,-0.367 0.611,-0.612 0.976,-0.732 l 0.184,0.152 0.031,0.031 c 0.366,0 0.857,0.092 1.192,-0.094 0.368,0.43 0.859,0.857 1.377,1.071 0.276,0.153 0.674,0.582 0.735,0.674 0.092,0.122 0.215,0.274 0.307,0.396 0.06,0.063 0.12,0.063 0.184,0 l 0.519,0.46 c 0.061,0.03 0.152,0.061 0.214,-0.031 0.062,0 0.55,0.52 0.764,0.642 0.215,-0.061 0.215,0.215 0.306,0.338 0.092,0.183 1.316,0.151 1.713,-0.552 0.122,-0.06 0.276,0.062 0.398,-0.06 0.152,-0.123 0.674,-0.368 0.366,-0.397 -0.277,-0.063 -0.429,-0.275 -0.735,-0.245 -0.152,-0.061 -0.213,-0.277 -0.366,-0.336 -0.184,0 -0.611,-0.184 -0.732,-0.215 -0.735,-0.367 -1.041,-0.765 -1.316,-0.858 -0.062,-0.06 -0.062,-0.183 0.029,-0.183 0.153,0 1.04,0.06 1.805,0.091 0.306,0 0.58,0 0.765,-0.031 1.896,-0.457 3.762,-2.047 4.13,-2.293 0.305,-0.306 0.764,-0.827 0.764,-1.071 -0.03,-0.398 -0.398,-1.378 -0.551,-1.865 -0.028,-0.063 -0.152,-0.797 -0.428,-0.797 -0.306,-0.366 -0.949,0.122 -1.161,0.062 -0.031,0 -0.063,-0.093 -0.094,-0.215 -0.06,-0.184 -0.12,-0.52 -0.184,-0.733 -0.518,-0.246 -0.181,-0.276 -0.06,-0.429 0.398,-0.182 0.094,-0.672 0.523,-0.825 z"
   id="path1229"
   style="fill:#ffffff;fill-opacity:1" />
	<path
   fill-rule="evenodd"
   clip-rule="evenodd"
   fill="#ffffff"
   d="m 23.154,10.905 c 0.278,-0.063 0.155,-1.009 0.186,-1.285 0.029,-0.153 0.124,-0.276 0.029,-0.367 -0.12,0 -0.091,0.277 -0.215,0.277 -0.029,-0.247 -0.151,-0.458 -0.214,-0.705 -0.122,-0.458 0.276,-1.314 0,-1.407 0,0.735 -0.122,0.735 -0.122,0.735 C 22.603,7.57 22.329,6.347 22.391,5.827 l -0.063,-0.03 c -0.09,0.061 0,0.244 -0.09,0.306 -0.032,0.029 -0.032,0 -0.061,-0.03 -0.063,-0.124 -0.123,-0.276 -0.216,-0.399 -0.06,-0.031 -0.091,0.061 -0.06,0.091 0.06,0.184 0.398,0.795 0.277,0.95 -0.063,-0.124 -0.186,-0.276 -0.277,-0.307 0.154,0.398 0.855,1.47 0.702,1.714 L 22.329,7.847 c -0.151,-0.063 -0.09,0.059 -0.029,0.091 0.367,0.428 0.612,0.886 0.671,1.437 L 22.94,9.437 C 22.85,9.315 22.727,9.222 22.636,9.071 h -0.094 c 0.032,0.244 0.214,0.336 0.369,0.488 0.367,0.244 0.305,1.102 0.243,1.346 z"
   id="path1231"
   style="fill:#ffffff;fill-opacity:1" />
	<path
   fill-rule="evenodd"
   clip-rule="evenodd"
   fill="#ffffff"
   d="m 23.432,22.285 0.214,0.213 -0.306,0.185 -0.091,-0.399 -0.095,-0.276 z m -0.52,-0.735 0.213,0.735 0.185,0.611 c 0.031,0.185 0.155,0.459 0,0.52 l 0.06,0.093 0.397,-0.246 -0.059,-0.091 c -0.061,0.031 -0.155,0.091 -0.214,-0.031 l -0.094,-0.338 0.366,-0.213 0.245,0.244 c 0.064,0.125 -0.031,0.155 -0.059,0.215 l 0.028,0.06 0.583,-0.335 -0.06,-0.091 c -0.032,0.031 -0.092,0.031 -0.154,0 -0.061,0 -0.154,-0.123 -0.214,-0.154 L 23.89,22.285 23.003,21.49 Z"
   id="path1233"
   style="fill:#ffffff;fill-opacity:1" />
	<path
   fill-rule="evenodd"
   clip-rule="evenodd"
   fill="#ffffff"
   d="m 17.097,23.967 h 0.094 l 0.092,-0.52 -1.255,-0.275 -0.123,0.519 0.092,0.032 c 0.06,-0.245 0.183,-0.399 0.367,-0.336 0.12,0.06 0.12,0.029 0.092,0.244 l -0.245,1.039 c -0.032,0.245 -0.063,0.369 -0.245,0.308 l -0.032,0.119 0.675,0.124 0.029,-0.093 c -0.183,-0.031 -0.183,-0.15 -0.122,-0.396 l 0.211,-1.041 c 0.063,-0.213 0.032,-0.213 0.186,-0.182 0.155,0.03 0.216,0.214 0.184,0.458 z"
   id="path1235"
   style="fill:#ffffff;fill-opacity:1" />
	<path
   fill-rule="evenodd"
   clip-rule="evenodd"
   fill="#ffffff"
   d="m 17.374,24.61 0.154,-0.367 0.123,-0.276 0.059,0.398 0.031,0.275 z m 0.735,0.337 -0.061,-0.308 -0.183,-1.193 h -0.094 l -0.305,0.703 -0.243,0.615 c -0.094,0.151 -0.155,0.426 -0.339,0.396 v 0.124 l 0.459,0.029 0.031,-0.092 c -0.091,0 -0.183,-0.031 -0.151,-0.183 l 0.12,-0.306 0.428,0.06 0.032,0.368 c 0,0.124 -0.123,0.092 -0.182,0.092 v 0.092 l 0.671,0.092 v -0.092 c -0.031,-0.031 -0.092,-0.06 -0.123,-0.092 -0.032,-0.062 -0.06,-0.213 -0.06,-0.305 z"
   id="path1237"
   style="fill:#ffffff;fill-opacity:1" />
	<path
   fill-rule="evenodd"
   clip-rule="evenodd"
   fill="#ffffff"
   d="m 20.342,24.824 -0.183,-0.949 c -0.031,-0.214 -0.062,-0.365 0.122,-0.397 l -0.032,-0.092 -0.672,0.123 0.031,0.121 c 0.183,-0.062 0.211,0.092 0.246,0.305 l 0.182,0.948 c 0.063,0.214 0.093,0.368 -0.122,0.4 l 0.029,0.09 0.675,-0.121 -0.031,-0.124 C 20.401,25.19 20.374,25.07 20.342,24.824 Z"
   id="path1239"
   style="fill:#ffffff;fill-opacity:1" />
	<path
   fill-rule="evenodd"
   clip-rule="evenodd"
   fill="#ffffff"
   d="m 19.241,25.284 c -0.247,0 -0.215,-0.186 -0.215,-0.46 v -0.826 c 0,-0.244 -0.032,-0.367 0.183,-0.367 v -0.092 h -0.704 v 0.092 c 0.215,0 0.215,0.122 0.215,0.367 v 0.95 c 0,0.243 0,0.366 -0.215,0.366 v 0.123 h 1.194 l 0.031,-0.552 h -0.094 c -0.06,0.305 -0.151,0.399 -0.395,0.399 z"
   id="path1241"
   style="fill:#ffffff;fill-opacity:1" />
</g><g
       aria-label="inPA"
       transform="matrix(0.26458333,0,0,0.26458333,-4.716286,-57.170504)"
       id="text1891"
       style="font-weight:bold;font-size:266.667px;line-height:1.25;font-family:'Titillium Web';-inkscape-font-specification:'Titillium Web Bold';white-space:pre;shape-inside:url(#rect1893);display:inline;fill:#ffffff"><path
         d="M 275.95913,1052.7444 V 919.4109 h 35.73338 v 133.3335 z m 0,-150.40019 V 866.0775 h 35.73338 v 36.26671 z"
         id="path195" /><path
         d="M 380.49244,1052.7444 H 344.75906 V 919.4109 h 35.46671 v 7.46667 q 18.13336,-10.66668 33.33338,-10.66668 26.66669,0 36.80004,15.73336 10.13335,15.73335 10.13335,48.53339 v 72.26676 h -35.73338 v -71.20009 q 0,-17.06669 -4.00001,-25.0667 -4,-8.26668 -16.00002,-8.26668 -10.93334,0 -21.06669,3.73334 l -3.2,1.06667 z"
         id="path197" /><path
         d="m 562.09252,999.94433 h -29.8667 v 52.80007 H 495.42577 V 871.41084 h 66.66675 q 64.53341,0 64.53341,62.93341 0,31.73337 -16.53335,48.80006 -16.26669,16.80002 -48.00006,16.80002 z m -29.8667,-31.46671 h 29.60003 q 27.4667,0 27.4667,-34.13337 0,-16.80002 -6.66667,-24.00003 -6.66668,-7.46668 -20.80003,-7.46668 h -29.60003 z"
         id="path199" /><path
         d="m 632.22536,1052.7444 40.80005,-181.33356 h 69.86675 l 40.80005,181.33356 h -36.80005 l -7.20001,-32.8 h -63.46674 l -7.20001,32.8 z m 69.33341,-150.93353 -18.40002,86.13344 h 49.60006 l -18.40002,-86.13344 z"
         id="path201" /></g></g></svg>
