<?xml version="1.0" encoding="UTF-8" standalone="no"?>
<!-- Created with Inkscape (http://www.inkscape.org/) -->

<svg
   xmlns:dc="http://purl.org/dc/elements/1.1/"
   xmlns:cc="http://creativecommons.org/ns#"
   xmlns:rdf="http://www.w3.org/1999/02/22-rdf-syntax-ns#"
   xmlns:svg="http://www.w3.org/2000/svg"
   xmlns="http://www.w3.org/2000/svg"
   xmlns:sodipodi="http://sodipodi.sourceforge.net/DTD/sodipodi-0.dtd"
   xmlns:inkscape="http://www.inkscape.org/namespaces/inkscape"
   width="297mm"
   height="210mm"
   viewBox="0 0 297 210"
   version="1.1"
   id="svg8"
   inkscape:version="0.92.1 r15371"
   sodipodi:docname="logo_Easy.svg">
  <defs
     id="defs2">
    <linearGradient
       id="linearGradient40"
       spreadMethod="pad"
       gradientTransform="matrix(-5.7e-6,-130.07031,-130.07031,5.7e-6,342.61523,375.60889)"
       gradientUnits="userSpaceOnUse"
       y2="0"
       x2="1"
       y1="0"
       x1="0">
      <stop
         id="stop36"
         offset="0"
         style="stop-opacity:1;stop-color:#0122b7" />
      <stop
         id="stop38"
         offset="1"
         style="stop-opacity:1;stop-color:#289cff" />
    </linearGradient>
    <clipPath
       id="clipPath50"
       clipPathUnits="userSpaceOnUse">
      <path
         inkscape:connector-curvature="0"
         id="path48"
         d="M 0,629.296 H 875.905 V 0 H 0 Z" />
    </clipPath>
    <linearGradient
       id="linearGradient82"
       spreadMethod="pad"
       gradientTransform="matrix(-1.3e-6,29.015625,29.015625,1.3e-6,438.88037,336.16211)"
       gradientUnits="userSpaceOnUse"
       y2="0"
       x2="1"
       y1="0"
       x1="0">
      <stop
         id="stop76"
         offset="0"
         style="stop-opacity:1;stop-color:#0122b7" />
      <stop
         id="stop78"
         offset="0.51955415"
         style="stop-opacity:1;stop-color:#0122b7" />
      <stop
         id="stop80"
         offset="1"
         style="stop-opacity:1;stop-color:#0122b7" />
    </linearGradient>
    <linearGradient
       id="linearGradient104"
       spreadMethod="pad"
       gradientTransform="matrix(-1e-6,22.195801,22.195801,1e-6,454.13916,335.63428)"
       gradientUnits="userSpaceOnUse"
       y2="0"
       x2="1"
       y1="0"
       x1="0">
      <stop
         id="stop98"
         offset="0"
         style="stop-opacity:1;stop-color:#0122b7" />
      <stop
         id="stop100"
         offset="0.51955415"
         style="stop-opacity:1;stop-color:#0122b7" />
      <stop
         id="stop102"
         offset="1"
         style="stop-opacity:1;stop-color:#0122b7" />
    </linearGradient>
    <linearGradient
       id="linearGradient126"
       spreadMethod="pad"
       gradientTransform="matrix(-9e-7,21.667969,21.667969,9e-7,479.46436,336.16211)"
       gradientUnits="userSpaceOnUse"
       y2="0"
       x2="1"
       y1="0"
       x1="0">
      <stop
         id="stop120"
         offset="0"
         style="stop-opacity:1;stop-color:#0122b7" />
      <stop
         id="stop122"
         offset="0.51955415"
         style="stop-opacity:1;stop-color:#0122b7" />
      <stop
         id="stop124"
         offset="1"
         style="stop-opacity:1;stop-color:#0122b7" />
    </linearGradient>
    <linearGradient
       id="linearGradient148"
       spreadMethod="pad"
       gradientTransform="matrix(-1.3e-6,29.339356,29.339356,1.3e-6,505.41797,328.45215)"
       gradientUnits="userSpaceOnUse"
       y2="0"
       x2="1"
       y1="0"
       x1="0">
      <stop
         id="stop142"
         offset="0"
         style="stop-opacity:1;stop-color:#0122b7" />
      <stop
         id="stop144"
         offset="0.51955415"
         style="stop-opacity:1;stop-color:#0122b7" />
      <stop
         id="stop146"
         offset="1"
         style="stop-opacity:1;stop-color:#0122b7" />
    </linearGradient>
    <linearGradient
       id="linearGradient170"
       spreadMethod="pad"
       gradientTransform="matrix(-1e-6,22.195801,22.195801,1e-6,527.41211,335.63428)"
       gradientUnits="userSpaceOnUse"
       y2="0"
       x2="1"
       y1="0"
       x1="0">
      <stop
         id="stop164"
         offset="0"
         style="stop-opacity:1;stop-color:#0122b7" />
      <stop
         id="stop166"
         offset="0.51955415"
         style="stop-opacity:1;stop-color:#0122b7" />
      <stop
         id="stop168"
         offset="1"
         style="stop-opacity:1;stop-color:#0122b7" />
    </linearGradient>
    <clipPath
       id="clipPath180"
       clipPathUnits="userSpaceOnUse">
      <path
         inkscape:connector-curvature="0"
         id="path178"
         d="M 0,629.296 H 875.905 V 0 H 0 Z" />
    </clipPath>
    <linearGradient
       id="linearGradient276"
       spreadMethod="pad"
       gradientTransform="matrix(77.800293,0,0,-77.800293,309.83447,347.22754)"
       gradientUnits="userSpaceOnUse"
       y2="0"
       x2="1"
       y1="0"
       x1="0">
      <stop
         id="stop270"
         offset="0"
         style="stop-opacity:1;stop-color:#0122b7" />
      <stop
         id="stop272"
         offset="0.51955415"
         style="stop-opacity:1;stop-color:#0122b7" />
      <stop
         id="stop274"
         offset="1"
         style="stop-opacity:1;stop-color:#0122b7" />
    </linearGradient>
  </defs>
  <sodipodi:namedview
     id="base"
     pagecolor="#ffffff"
     bordercolor="#666666"
     borderopacity="1.0"
     inkscape:pageopacity="0.0"
     inkscape:pageshadow="2"
     inkscape:zoom="0.35"
     inkscape:cx="-258.57143"
     inkscape:cy="560"
     inkscape:document-units="mm"
     inkscape:current-layer="g18"
     showgrid="false"
     inkscape:window-width="4096"
     inkscape:window-height="2081"
     inkscape:window-x="-9"
     inkscape:window-y="-9"
     inkscape:window-maximized="1" />
  <metadata
     id="metadata5">
    <rdf:RDF>
      <cc:Work
         rdf:about="">
        <dc:format>image/svg+xml</dc:format>
        <dc:type
           rdf:resource="http://purl.org/dc/dcmitype/StillImage" />
        <dc:title></dc:title>
      </cc:Work>
    </rdf:RDF>
  </metadata>
  <g
     inkscape:label="Livello 1"
     inkscape:groupmode="layer"
     id="layer1"
     transform="translate(0,-87)">
    <g
       transform="matrix(0.84986582,0,0,-0.84986582,-215.52908,451.85357)"
       inkscape:label="logo_tempo"
       id="g18">
      <g
         transform="matrix(1.5165297,0,0,1.5165297,491.25244,332.21983)"
         id="g20">
        <path
           inkscape:connector-curvature="0"
           id="path22"
           style="fill:#00abe6;fill-opacity:1;fill-rule:nonzero;stroke:none"
           d="m 0,0 -46.288,-16.509 -1.346,-4.411 3.486,-1.258 z" />
      </g>
      <g
         id="g24"
         transform="matrix(1.5165297,0,0,1.5165297,-94.380564,-170.41348)">
        <g
           id="g26">
          <g
             id="g32">
            <g
               id="g34">
              <path
                 inkscape:connector-curvature="0"
                 id="path42"
                 style="fill:url(#linearGradient40);stroke:none"
                 d="m 272.302,313.923 c 1.201,-38.948 33.745,-69.549 72.692,-68.35 v 0 c 35.597,1.099 64.22,28.376 67.968,62.796 v 0 l -20.064,-1.854 c -4.372,-22.947 -24.184,-40.617 -48.503,-41.369 v 0 c -28.14,-0.863 -51.649,21.242 -52.519,49.381 v 0 c -0.554,17.931 8.231,33.973 21.959,43.483 v 0 l -8.911,17.599 c -20.27,-12.938 -33.419,-35.904 -32.622,-61.686" />
            </g>
          </g>
        </g>
      </g>
      <g
         id="g44"
         transform="matrix(1.5165297,0,0,1.5165297,-94.380564,-170.41348)">
        <g
           clip-path="url(#clipPath50)"
           id="g46">
          <g
             transform="translate(413.3091,319.2749)"
             id="g52">
            <path
               inkscape:connector-curvature="0"
               id="path54"
               style="fill:#00abe6;fill-opacity:1;fill-rule:nonzero;stroke:none"
               d="M 0,0 C -0.045,1.003 -0.111,2.001 -0.2,2.994 -0.845,10.44 -2.639,17.541 -5.403,24.125 L -22.242,13.311 c 1.604,-4.693 2.541,-9.703 2.705,-14.92 0,-0.087 0,-0.172 0.003,-0.257 z" />
          </g>
          <g
             transform="translate(407.9062,343.3994)"
             id="g56">
            <path
               inkscape:connector-curvature="0"
               id="path58"
               style="fill:#0096d5;fill-opacity:1;fill-rule:nonzero;stroke:none"
               d="M 0,0 C -2.75,6.544 -6.451,12.581 -10.931,17.932 L -23.958,2.816 c 3.018,-4.11 5.436,-8.695 7.119,-13.629 z" />
          </g>
          <g
             transform="translate(383.9487,346.2153)"
             id="g60">
            <path
               inkscape:connector-curvature="0"
               id="path62"
               style="fill:#00529f;fill-opacity:1;fill-rule:nonzero;stroke:none"
               d="M 0,0 C 0,0 -5.525,7.081 -7.851,8.579 L 3.686,24.411 c 0,0 8.731,-7.728 11.221,-11.634 L 0.325,-0.012" />
          </g>
        </g>
      </g>
      <g
         id="g258"
         transform="matrix(1.5165297,0,0,1.5165297,-94.380564,-170.41348)">
        <g
           id="g260">
          <g
             id="g266">
            <g
               id="g268">
              <path
                 inkscape:connector-curvature="0"
                 id="path278"
                 style="fill:url(#linearGradient276);stroke:none"
                 d="m 309.835,378.472 6.253,-12.242 2.63,-5.236 c 0,0 17.823,9.903 37.945,4.184 v 0 l -23.47,-46.064 c -2.21,-4.406 -1.923,-7.257 0.927,-9.754 v 0 c 3.044,-2.662 7.612,-1.959 10.051,1.041 v 0 l 43.463,60.225 c -10.909,9.487 -24.754,15.175 -41.037,15.941 v 0 l -0.003,0.048 c -1.436,0.091 -2.846,0.133 -4.224,0.133 v 0 c -19.255,0.001 -32.535,-8.276 -32.535,-8.276" />
            </g>
          </g>
        </g>
      </g>
    </g>
  </g>
</svg>
