<?xml version="1.0" encoding="UTF-8" standalone="no"?>
<!-- Created with Inkscape (http://www.inkscape.org/) -->

<svg
   xmlns:dc="http://purl.org/dc/elements/1.1/"
   xmlns:cc="http://creativecommons.org/ns#"
   xmlns:rdf="http://www.w3.org/1999/02/22-rdf-syntax-ns#"
   xmlns:svg="http://www.w3.org/2000/svg"
   xmlns="http://www.w3.org/2000/svg"
   xmlns:sodipodi="http://sodipodi.sourceforge.net/DTD/sodipodi-0.dtd"
   xmlns:inkscape="http://www.inkscape.org/namespaces/inkscape"
   width="126.98492mm"
   height="106.6632mm"
   viewBox="0 0 449.94658 377.94045"
   id="svg2"
   version="1.1"
   inkscape:version="0.92.1 r15371"
   sodipodi:docname="logo-FUSS-embedded.svg"
   inkscape:export-filename="/home/paolo/ownCloud/Work/Projects/FUSS/logo/logo-FUSS-01-2.0.png"
   inkscape:export-xdpi="150"
   inkscape:export-ydpi="150">
  <defs
     id="defs4" />
  <sodipodi:namedview
     id="base"
     pagecolor="#ffffff"
     bordercolor="#666666"
     borderopacity="1.0"
     inkscape:pageopacity="0.0"
     inkscape:pageshadow="2"
     inkscape:zoom="0.9899495"
     inkscape:cx="30.545649"
     inkscape:cy="156.27188"
     inkscape:document-units="px"
     inkscape:current-layer="layer1"
     showgrid="false"
     inkscape:window-width="1680"
     inkscape:window-height="958"
     inkscape:window-x="0"
     inkscape:window-y="25"
     inkscape:window-maximized="1"
     inkscape:object-paths="false"
     inkscape:snap-intersection-paths="false"
     inkscape:snap-nodes="true"
     fit-margin-top="5"
     fit-margin-left="5"
     fit-margin-right="5"
     fit-margin-bottom="5" />
  <metadata
     id="metadata7">
    <rdf:RDF>
      <cc:Work
         rdf:about="">
        <dc:format>image/svg+xml</dc:format>
        <dc:type
           rdf:resource="http://purl.org/dc/dcmitype/StillImage" />
        <dc:title></dc:title>
      </cc:Work>
    </rdf:RDF>
  </metadata>
  <g
     inkscape:label="Layer 1"
     inkscape:groupmode="layer"
     id="layer1"
     transform="translate(-148.57267,-66.853831)">
    <g
       aria-label="FUSS"
       transform="scale(1.1357962,0.88043964)"
       style="font-style:normal;font-weight:normal;line-height:0%;font-family:sans-serif;letter-spacing:0px;word-spacing:0px;fill:#297ae6;fill-opacity:1;stroke:none;stroke-width:1px;stroke-linecap:butt;stroke-linejoin:miter;stroke-opacity:1"
       id="text3392">
      <path
         d="m 208.75109,455.82433 h -41.02842 v -13.07718 h 41.02842 z m 5.7899,-29.34879 h -52.00926 v 58.59776 h -12.97736 v -65.03653 q 0,-1.34765 0.49913,-2.54556 0.49913,-1.19791 1.34765,-2.09634 0.89843,-0.89843 2.09634,-1.39756 1.19791,-0.49913 2.59547,-0.49913 h 58.44803 z"
         style="font-style:normal;font-variant:normal;font-weight:normal;font-stretch:normal;font-size:102.2216568px;line-height:1.42999995;font-family:Audiowide;-inkscape-font-specification:Audiowide;letter-spacing:16.5px;fill:#297ae6;fill-opacity:1"
         id="path3692" />
      <path
         d="m 311.65035,478.53471 q 0,1.39756 -0.49913,2.59547 -0.49913,1.19791 -1.39756,2.09635 -0.89843,0.84851 -2.09635,1.34764 -1.19791,0.49913 -2.54555,0.49913 h -29.24897 q -4.14278,0 -8.38537,-0.89843 -4.2426,-0.89843 -8.23564,-2.74521 -3.94312,-1.89669 -7.43702,-4.79164 -3.4939,-2.89495 -6.13929,-6.83807 -2.59547,-3.99303 -4.09286,-9.08415 -1.49739,-5.14103 -1.49739,-11.43006 v -35.78756 h 12.97736 v 35.78756 q 0,5.49042 1.49739,9.2838 1.5473,3.79339 3.89321,6.33894 2.3459,2.54556 5.14103,3.99304 2.79512,1.44747 5.29077,2.14625 2.54556,0.69878 4.44225,0.89844 1.9466,0.14973 2.54556,0.14973 h 22.8102 v -58.59776 h 12.97736 z"
         style="font-style:normal;font-variant:normal;font-weight:normal;font-stretch:normal;font-size:102.2216568px;line-height:1.42999995;font-family:Audiowide;-inkscape-font-specification:Audiowide;letter-spacing:16.5px;fill:#297ae6;fill-opacity:1"
         id="path3694" />
      <path
         d="m 412.05397,464.01005 q 0,3.8433 -0.99825,6.9379 -0.94835,3.04469 -2.54556,5.39059 -1.59722,2.34591 -3.74347,3.99304 -2.14626,1.64712 -4.44225,2.69529 -2.296,1.04817 -4.69182,1.5473 -2.3459,0.49913 -4.44225,0.49913 h -50.06265 v -12.97736 h 50.06265 q 3.74347,0 5.7899,-2.19616 2.09634,-2.19617 2.09634,-5.88973 0,-1.79686 -0.54904,-3.29425 -0.54904,-1.49739 -1.59721,-2.59547 -0.99826,-1.09809 -2.49565,-1.69704 -1.44747,-0.59896 -3.24434,-0.59896 h -29.84792 q -3.14452,0 -6.78816,-1.09808 -3.64364,-1.148 -6.78816,-3.64364 -3.0946,-2.49565 -5.19094,-6.5386 -2.04643,-4.04294 -2.04643,-9.88275 0,-5.83982 2.04643,-9.83285 2.09634,-4.04295 5.19094,-6.53859 3.14452,-2.54556 6.78816,-3.64364 3.64364,-1.148 6.78816,-1.148 h 44.17293 v 12.97736 h -44.17293 q -3.69356,0 -5.7899,2.24608 -2.04643,2.24608 -2.04643,5.93964 0,3.74346 2.04643,5.93963 2.09634,2.14626 5.7899,2.14626 h 29.84792 0.0998 q 2.09634,0.0499 4.44225,0.59895 2.34591,0.49913 4.6419,1.59722 2.34591,1.09808 4.44225,2.79512 2.09634,1.64713 3.69356,3.99303 1.64712,2.34591 2.59547,5.3906 0.94834,3.04469 0.94834,6.88798 z"
         style="font-style:normal;font-variant:normal;font-weight:normal;font-stretch:normal;font-size:102.2216568px;line-height:1.42999995;font-family:Audiowide;-inkscape-font-specification:Audiowide;letter-spacing:16.5px;fill:#297ae6;fill-opacity:1"
         id="path3696" />
      <path
         d="m 508.21498,464.01005 q 0,3.8433 -0.99825,6.9379 -0.94835,3.04469 -2.54556,5.39059 -1.59722,2.34591 -3.74347,3.99304 -2.14626,1.64712 -4.44225,2.69529 -2.296,1.04817 -4.69182,1.5473 -2.3459,0.49913 -4.44225,0.49913 h -50.06265 v -12.97736 h 50.06265 q 3.74347,0 5.7899,-2.19616 2.09635,-2.19617 2.09635,-5.88973 0,-1.79686 -0.54905,-3.29425 -0.54904,-1.49739 -1.59721,-2.59547 -0.99826,-1.09809 -2.49565,-1.69704 -1.44747,-0.59896 -3.24434,-0.59896 h -29.84792 q -3.14451,0 -6.78816,-1.09808 -3.64364,-1.148 -6.78815,-3.64364 -3.09461,-2.49565 -5.19095,-6.5386 -2.04643,-4.04294 -2.04643,-9.88275 0,-5.83982 2.04643,-9.83285 2.09634,-4.04295 5.19095,-6.53859 3.14451,-2.54556 6.78815,-3.64364 3.64365,-1.148 6.78816,-1.148 h 44.17293 v 12.97736 h -44.17293 q -3.69356,0 -5.7899,2.24608 -2.04643,2.24608 -2.04643,5.93964 0,3.74346 2.04643,5.93963 2.09634,2.14626 5.7899,2.14626 h 29.84792 0.0998 q 2.09634,0.0499 4.44225,0.59895 2.34591,0.49913 4.6419,1.59722 2.34591,1.09808 4.44225,2.79512 2.09634,1.64713 3.69356,3.99303 1.64712,2.34591 2.59547,5.3906 0.94834,3.04469 0.94834,6.88798 z"
         style="font-style:normal;font-variant:normal;font-weight:normal;font-stretch:normal;font-size:102.2216568px;line-height:1.42999995;font-family:Audiowide;-inkscape-font-specification:Audiowide;letter-spacing:16.5px;fill:#297ae6;fill-opacity:1"
         id="path3698" />
    </g>
    <g
       aria-label=" "
       style="font-style:normal;font-variant:normal;font-weight:bold;font-stretch:normal;line-height:0%;font-family:'Liberation Sans';-inkscape-font-specification:'Liberation Sans Bold';letter-spacing:0px;word-spacing:0px;fill:#000000;fill-opacity:1;stroke:none;stroke-width:1px;stroke-linecap:butt;stroke-linejoin:miter;stroke-opacity:1"
       id="text4137" />
    <g
       id="g4157"
       transform="translate(-123.95053,253.9343)">
      <path
         style="fill:#297ae6;fill-opacity:1;stroke:none;stroke-width:0.85600001;stroke-miterlimit:4;stroke-dasharray:none;stroke-opacity:1"
         d="m 388.65999,-120.37154 a 48.48732,48.992397 0 0 1 -48.48732,48.992401 48.48732,48.992397 0 0 1 -48.48732,-48.992401 48.48732,48.992397 0 0 1 48.48732,-48.99239 48.48732,48.992397 0 0 1 48.48732,48.99239 z"
         id="path4189-3" />
      <path
         style="fill:#e2323c;fill-opacity:1;stroke:none;stroke-width:0.85600001;stroke-miterlimit:4;stroke-dasharray:none;stroke-opacity:1"
         d="m 516.94933,-98.148178 a 39.901024,39.901024 0 0 1 -39.90102,39.901024 39.901024,39.901024 0 0 1 -39.90102,-39.901024 39.901024,39.901024 0 0 1 39.90102,-39.901022 39.901024,39.901024 0 0 1 39.90102,39.901022 z"
         id="path4193-6" />
      <path
         style="fill:#f2a658;fill-opacity:1;stroke:none;stroke-width:0.85600001;stroke-miterlimit:4;stroke-dasharray:none;stroke-opacity:1"
         d="m 624.02551,-54.145607 a 35.355339,35.355339 0 0 1 -35.35534,35.355339 35.355339,35.355339 0 0 1 -35.35534,-35.355339 35.355339,35.355339 0 0 1 35.35534,-35.355339 35.355339,35.355339 0 0 1 35.35534,35.355339 z"
         id="path4197-7" />
      <path
         style="fill:#bfd587;fill-opacity:1;stroke:none;stroke-width:0.85600001;stroke-miterlimit:4;stroke-dasharray:none;stroke-opacity:1"
         d="M 701.80723,-8.2445984 A 28.789347,28.789347 0 0 1 673.01788,20.544748 28.789347,28.789347 0 0 1 644.22854,-8.2445984 28.789347,28.789347 0 0 1 673.01788,-37.033945 28.789347,28.789347 0 0 1 701.80723,-8.2445984 Z"
         id="path4201-5" />
      <path
         inkscape:export-ydpi="150"
         inkscape:export-xdpi="150"
         sodipodi:nodetypes="cccccccccc"
         inkscape:connector-curvature="0"
         id="path4158-3"
         d="m 290.73489,-26.044077 c 0.2109,-19.853033 76.41213,-29.502554 121.92695,-24.821329 32.82133,2.72352 65.39407,10.798685 98.65706,20.541903 63.90634,23.705607 123.37276,56.681497 174.23819,93.981745 5.4553,3.921339 22.48963,17.621258 17.93685,22.195935 -11.92033,0.81165 -23.50983,-6.278892 -34.81857,-10.251755 L 581.585,42.770053 C 546.8788,30.973844 512.54724,21.089686 479.15485,15.99903 443.36202,10.252197 407.5692,7.5691093 371.77638,3.8763072 354.41327,2.1356989 292.49138,-6.0096812 290.73489,-26.044077 Z"
         style="fill:#c1c1c1;fill-opacity:1;fill-rule:evenodd;stroke:#c1c1c1;stroke-width:0.98984283px;stroke-linecap:butt;stroke-linejoin:miter;stroke-opacity:1" />
    </g>
  </g>
</svg>
