<?xml version="1.0" standalone="no"?>

<svg viewBox="0 0 800 600" style="background-color:#ffffff00" version="1.1" xmlns="http://www.w3.org/2000/svg" xmlns:xlink="http://www.w3.org/1999/xlink" xml:space="preserve" x="0px" y="0px" width="100%" height="100%">
	<g id="Sfondo">
		<g>
			<g>
				<path d="M 81.5 288.5 C 83.3 243.4 116.4 225.9 142.1 225.9 C 167.9 225.9 190.9 236.9 208.3 262.7 L 240.5 238.8 C 220.3 208.4 192.7 185.3 146.7 185.3 C 86.1 185.3 41 234.1 41 294.9 C 41 311.5 41 319.8 42.8 329 L 210.2 329 C 210.2 361.2 190 399 144 399 C 114.6 399 92.5 380.6 77.8 357.6 L 42.8 380.6 C 54.8 399.9 89.7 439.5 142.1 439.5 C 199.1 439.5 251.5 396.2 251.5 318.9 C 251.5 305.1 250.6 296.8 248.8 288.5 L 81.5 288.5 Z" fill="#701213"/>
				<path d="M 277.3 434 L 313.2 434 L 313.2 246.1 L 277.3 246.1 L 277.3 434 M 274.5 208.4 C 274.5 220.3 283.7 230.5 294.8 230.5 C 306.7 230.5 315.9 220.3 315.9 208.4 C 315.9 195.5 306.7 185.3 294.8 185.3 C 283.7 185.3 274.5 195.5 274.5 208.4 Z" fill="#701213"/>
				<path d="M 505.3 286.6 C 488.8 260.9 464.9 241.5 428.1 241.5 C 369.2 241.5 334.3 290.3 334.3 340.1 C 334.3 389.8 369.2 439.5 428.1 439.5 C 461.2 439.5 489.7 420.2 505.3 393.5 L 473.1 373.2 C 463 389.8 448.3 400.8 428.1 400.8 C 396.8 400.8 372.9 374.1 372.9 340.1 C 372.9 306.9 396.8 279.3 428.1 279.3 C 449.2 279.3 463 291.2 473.1 307.8 L 505.3 286.6 Z" fill="#701213"/>
			</g>
			<path d="M 607.4 131 L 760 299.5 L 684.6 383.3 L 531.1 214.8 L 607.4 131 Z" fill="#701213"/>
			<path d="M 606.5 469 L 606.5 300.5 L 684.6 385.2 C 684.6 385.2 607.4 469.9 606.5 469 Z" fill="#701213"/>
		</g>
	</g>
	<g id="Livello%201">
	</g>
</svg>