<?xml version="1.0" encoding="UTF-8"?>
<svg id="Livello_1" data-name="Livello 1" xmlns="http://www.w3.org/2000/svg" viewBox="0 0 1080 1080">
  <defs>
    <style>
      .cls-1 {
        fill: #333;
      }

      .cls-2 {
        fill: #b22424;
      }
    </style>
  </defs>
  <path class="cls-1" d="m112.95,579.98v-4.97c0-3.47,1.73-5.2,5.2-5.2h21.11c3.47,0,5.2,1.73,5.2,5.2v1.96c0,6.33,1.21,10.63,3.69,12.96,2.49,2.34,7.01,3.47,13.64,3.47h11.68c6.48,0,11.01-1.21,13.57-3.69,2.56-2.49,3.84-7.16,3.84-13.94v-3.01c0-4.82-1.96-8.52-5.88-11.08-3.92-2.56-8.74-4.07-14.55-4.6-5.8-.53-12.06-1.43-18.77-2.86-6.71-1.43-12.97-3.24-18.77-5.5-5.8-2.26-10.63-6.63-14.55-13.19-3.92-6.56-5.88-14.92-5.88-25.25v-8.67c0-12.96,3.62-22.99,10.93-30.07,7.31-7.16,17.41-10.7,30.3-10.7h24.88c13.12,0,23.29,3.54,30.61,10.7,7.31,7.16,10.93,17.18,10.93,30.07v4.75c0,3.47-1.73,5.2-5.2,5.2h-21.11c-3.47,0-5.2-1.73-5.2-5.2v-1.51c0-6.48-1.21-10.85-3.69-13.19-2.49-2.34-7.01-3.47-13.64-3.47h-9.72c-6.78,0-11.38,1.28-13.8,3.84-2.41,2.56-3.62,7.61-3.62,15.07v4.75c0,7.76,6.78,12.28,20.43,13.41,14.1,1.13,26.61,3.99,37.54,8.44,5.8,2.49,10.63,6.93,14.55,13.34,3.92,6.41,5.88,14.55,5.88,24.49v8.44c0,12.96-3.62,22.99-10.93,30.07-7.31,7.16-17.41,10.7-30.38,10.7h-27.14c-12.97,0-23.07-3.54-30.38-10.7-7.31-7.16-10.93-17.18-10.93-30.07h.15Zm170.89-113.88v149.45c0,3.47-1.73,5.2-5.2,5.2h-21.11c-3.47,0-5.2-1.73-5.2-5.2v-149.45c0-3.47,1.73-5.2,5.2-5.2h21.11c3.47,0,5.2,1.73,5.2,5.2Zm33.55,149.45v-149.45c0-3.47,1.73-5.2,5.2-5.2h59.7c13.12,0,23.22,3.47,30.38,10.48,7.16,6.93,10.7,16.88,10.7,29.84v10.17c0,14.09-6.56,23.21-19.68,27.36,6.63.98,11.91,3.69,15.91,8.06,4,4.37,5.96,10.63,5.96,18.77v14.92c0,12.96-3.54,22.91-10.7,29.84-7.16,6.93-17.19,10.48-30.08,10.48h-62.19c-3.47,0-5.2-1.73-5.2-5.2v-.08Zm34.3-89.76h25.33c5.28,0,9.2-1.13,11.68-3.39,2.49-2.26,3.69-5.95,3.69-11.08v-9.72c0-5.12-1.21-8.82-3.62-11.08-2.41-2.26-6.26-3.39-11.53-3.39h-25.63c-1.81,0-2.71.9-2.71,2.71v33.09c0,1.81.9,2.71,2.71,2.71l.08.15Zm0,68.66h27.82c5.5,0,9.42-1.13,11.84-3.39,2.41-2.26,3.62-5.95,3.62-11.08v-14.39c0-5.12-1.21-8.82-3.69-10.93-2.49-2.19-6.56-3.24-12.21-3.24h-27.36c-1.81,0-2.71.9-2.71,2.71v37.53c0,1.81.9,2.71,2.71,2.71v.08Zm268.59,26.38h-21.11c-3.47,0-5.2-1.73-5.2-5.2v-149.52c0-3.47,1.73-5.2,5.2-5.2h59.18c12.97,0,23.07,3.54,30.3,10.7,7.31,7.16,10.93,17.18,10.93,30.07v19.37c0,18.77-7.39,31.2-22.16,37.31v.98l26.61,55.47c1.51,3.99.08,5.95-4.22,5.95h-20.13c-3.02,0-5.13-.3-6.48-.98-1.36-.68-2.41-2.03-3.24-4.22l-24.88-53.74h-16.66c-1.96,0-3.02.9-3.02,2.71v50.95c0,3.47-1.73,5.2-5.2,5.2l.08.15Zm7.99-84.26h24.35c5.28,0,9.2-1.13,11.68-3.39,2.49-2.26,3.69-5.88,3.69-10.85v-19.37c0-5.12-1.21-8.89-3.69-11.15-2.49-2.34-6.41-3.47-11.68-3.47h-24.35c-1.81,0-2.71.9-2.71,2.71v42.73c0,1.81.9,2.71,2.71,2.71v.08Zm98.6,25.17v-98.95c0-1.28.53-1.88,1.58-1.88h39.43c6.94,0,12.36,2.03,16.36,6.1,4,4.07,5.96,9.57,5.96,16.58v57.35c0,7.01-2.04,12.59-5.96,16.58-4,4.07-9.42,6.1-16.36,6.1h-39.43c-1.06,0-1.58-.6-1.58-1.88Zm9.57-5.28h30.68c4.9,0,8.67-1.36,11.23-4.07,2.64-2.71,3.92-6.63,3.92-11.76v-56.75c0-5.12-1.28-9.04-3.92-11.76-2.64-2.71-6.33-4.07-11.23-4.07h-30.68c-1.06,0-1.58.45-1.58,1.43v85.46c0,.98.53,1.43,1.58,1.43v.08Zm119.78,7.16h-19.68c-6.94,0-12.36-2.03-16.36-6.1-4-4.07-5.96-9.57-5.96-16.58v-57.35c0-7.01,1.96-12.59,5.96-16.58,4-4.07,9.42-6.1,16.36-6.1h19.68c6.94,0,12.36,2.03,16.36,6.1,4,4.07,5.96,9.57,5.96,16.58v57.35c0,7.01-1.96,12.59-5.96,16.58-4,4.07-9.42,6.1-16.36,6.1Zm-19-7.16h18.24c4.9,0,8.67-1.36,11.23-4.07,2.64-2.71,3.92-6.63,3.92-11.76v-56.75c0-5.12-1.28-9.04-3.92-11.76-2.64-2.71-6.33-4.07-11.23-4.07h-18.24c-4.9,0-8.59,1.36-11.16,4.15-2.56,2.79-3.84,6.63-3.84,11.68v56.67c0,4.97,1.28,8.89,3.84,11.68,2.56,2.79,6.26,4.15,11.16,4.15v.08Zm107.8,7.16h-20.13c-6.94,0-12.36-2.03-16.36-6.1-4-4.07-5.96-9.57-5.96-16.58v-57.35c0-7.01,1.96-12.59,5.96-16.58,4-4.07,9.42-6.1,16.36-6.1h20.13c6.94,0,12.36,2.03,16.36,6.1,4,4.07,5.96,9.57,5.96,16.58v7.84c0,1.28-.6,1.88-1.73,1.88h-4.45c-1.21,0-1.73-.6-1.73-1.88v-7.54c0-5.12-1.28-9.04-3.92-11.76-2.64-2.71-6.33-4.07-11.23-4.07h-18.7c-4.9,0-8.59,1.36-11.16,4.15-2.56,2.79-3.84,6.63-3.84,11.68v56.67c0,4.97,1.28,8.89,3.84,11.68,2.56,2.79,6.26,4.15,11.16,4.15h18.7c4.9,0,8.67-1.36,11.23-4.07,2.64-2.71,3.92-6.63,3.92-11.76v-7.54c0-1.28.6-1.88,1.73-1.88h4.45c1.21,0,1.73.6,1.73,1.88v7.84c0,7.01-1.96,12.59-5.96,16.58-4,4.07-9.42,6.1-16.36,6.1v.08Zm-373.3,52l-39.2-149.52c-.83-3.47-3.32-5.2-7.46-5.2h-33.09c-3.84,0-6.33,1.73-7.46,5.2l-39.27,149.45c-.98,3.47,0,5.2,3.02,5.2h23.9c1.66,0,2.86-.38,3.62-1.13s1.28-2.11,1.58-4.07l30.83-124.58h.98l30.61,124.58c.3,1.96.83,3.39,1.51,4.07.68.75,1.88,1.13,3.69,1.13h23.9c3.02,0,4-1.73,3.02-5.2l-.15.08Z"/>
  <path class="cls-2" d="m740.44,589.25h213.56c7.45,0,13.49,6.04,13.49,13.49v4.59c0,7.45-6.05,13.49-13.49,13.49h-213.56c-7.45,0-13.49-6.04-13.49-13.49v-4.59c0-7.45,6.05-13.49,13.49-13.49Z"/>
</svg>