<svg xmlns="http://www.w3.org/2000/svg" xmlns:xlink="http://www.w3.org/1999/xlink" id="Livello_1" x="0px" y="0px" viewBox="0 0 428.1 140.2" style="enable-background:new 0 0 428.1 140.2;" xml:space="preserve">
<style type="text/css">
	.st0{fill:#00A9DF;}
	.st1{fill:#FFFFFF;}
	.st2{fill:#009CD9;}
	.st3{fill:#39BBE6;}
	.st4{fill:#A6CA59;}
	.st5{fill:#91C14A;}
</style>
<path class="st0" d="M184.7,67.3c-2.9,3-6.7,4.6-11.3,4.6c-4.4,0-8-1.6-10.9-4.4c-4.1-4.1-4-9.1-4-16.1s-0.1-12,4-16.1  c2.8-2.8,6.4-4.4,10.9-4.4c5.6,0,8.7,1.5,12.4,5.1l-5.3,5.3c-2.3-2.3-3.9-3.5-7-3.5c-2.1,0-3.9,0.8-5,2.2c-1.5,1.7-1.9,3.6-1.9,11.3  c0,7.8,0.4,9.7,1.9,11.4c1.1,1.3,2.9,2.1,5,2.1c2.4,0,4.1-0.8,5.4-2.3c1.3-1.4,1.8-3.5,1.8-5.5v-1.4h-7.1v-6.6h15V55  C188.5,60.8,187.6,64.4,184.7,67.3"></path>
<polygon class="st1" points="192.7,71.6 192.7,66.4 211.3,36.8 193.5,36.8 193.5,31.3 218.5,31.3 218.5,36.3 199.8,66.1 218.5,66.1   218.5,71.6 "></polygon>
<path class="st1" d="M244.1,39c-1.4-1.5-3.6-2.5-6-2.5s-4.6,1-6,2.5c-2,2.2-2.4,4.4-2.4,12.5s0.4,10.4,2.4,12.5  c1.4,1.5,3.6,2.5,6,2.5s4.6-1,6-2.5c2-2.2,2.4-4.4,2.4-12.5C246.5,43.4,246.1,41.1,244.1,39 M248.7,67.7c-2.8,2.8-6.4,4.3-10.6,4.3  c-4.3,0-7.8-1.5-10.6-4.3c-4-4-3.9-8.4-3.9-16.2c0-7.8-0.1-12.2,3.9-16.2c2.8-2.8,6.3-4.3,10.6-4.3s7.9,1.5,10.6,4.3  c4,4,3.9,8.4,3.9,16.2C252.6,59.2,252.7,63.7,248.7,67.7"></path>
<path class="st1" d="M279.3,39c-1.4-1.5-3.6-2.5-6-2.5c-2.4,0-4.6,1-6,2.5c-2,2.2-2.4,4.4-2.4,12.5s0.4,10.4,2.4,12.5  c1.4,1.5,3.6,2.5,6,2.5c2.4,0,4.6-1,6-2.5c2-2.2,2.4-4.4,2.4-12.5C281.6,43.4,281.2,41.1,279.3,39 M283.9,67.7  c-2.8,2.8-6.4,4.3-10.6,4.3s-7.8-1.5-10.6-4.3c-4-4-3.9-8.4-3.9-16.2c0-7.8-0.1-12.2,3.9-16.2c2.8-2.8,6.3-4.3,10.6-4.3  s7.9,1.5,10.6,4.3c4,4,3.9,8.4,3.9,16.2C287.8,59.2,287.9,63.7,283.9,67.7"></path>
<polygon class="st1" points="324.9,71.6 324.9,44.7 315.6,64.3 311,64.3 301.5,44.7 301.5,71.6 295.4,71.6 295.4,31.3 301.5,31.3   313.3,56.4 324.9,31.3 331,31.3 331,71.6 "></polygon>
<polygon class="st2" points="60.7,0 0,35 0,70.1 60.7,35.1 "></polygon>
<polygon class="st0" points="60.7,105.1 30.4,122.7 30.4,52.6 60.7,35.1 "></polygon>
<polygon class="st3" points="30.4,122.6 60.7,140.2 121.4,105.1 91,87.6 "></polygon>
<polygon class="st0" points="91,52.5 121.4,70.1 91,87.6 "></polygon>
<polygon class="st4" points="60.7,70.1 91,87.6 60.7,105.1 "></polygon>
<polygon class="st5" points="0,70.1 30.3,87.6 30.4,52.6 "></polygon>
<g>
	<path class="st1" d="M171.4,105.9H169l-6.5-19.7h3.1l4.6,14.4l4.6-14.4h3.2L171.4,105.9z"></path>
	<path class="st1" d="M191,105.9l-1.4-4h-7.8l-1.4,4h-3.2l7.2-19.7h2.4l7.2,19.7H191z M185.8,90.6l-3.1,8.8h6.1L185.8,90.6z"></path>
	<path class="st1" d="M197,105.9V86.1h3v17.1h9.5v2.7C209.5,105.9,197,105.9,197,105.9z"></path>
	<path class="st1" d="M219.1,106c-4,0-7.1-2.7-7.1-6.8V86.1h3v12.9c0,2.6,1.6,4.3,4.1,4.3s4.1-1.6,4.1-4.3V86.1h3v13.1   C226.2,103.3,223.1,106,219.1,106z"></path>
	<path class="st1" d="M231,105.9V86.1h12.6v2.7H234v5.8h8.2v2.7H234v5.9h9.6v2.7C243.6,105.9,231,105.9,231,105.9z"></path>
	<path class="st1" d="M266.2,103.8c-1.5,1.6-3.4,2.2-5.4,2.2c-2,0-3.8-0.8-5.2-2.1c-1.9-1.9-1.9-4.1-1.9-7.9s0-6,1.9-7.9   c1.4-1.4,3.1-2.1,5.2-2.1c4.2,0,6.6,2.7,7.2,6.1h-3c-0.5-2.2-1.9-3.4-4.2-3.4c-1.2,0-2.2,0.5-2.9,1.2c-1,1.1-1.2,2.2-1.2,6.1   s0.2,5.1,1.2,6.2c0.7,0.8,1.8,1.2,2.9,1.2c1.3,0,2.4-0.5,3.2-1.4c0.7-0.8,1-1.8,1-3.1v-1.1h-4.2v-2.6h7.2v3   C268,100.8,267.5,102.4,266.2,103.8z"></path>
	<path class="st1" d="M284,103.9c-1.4,1.4-3.1,2.1-5.2,2.1c-2.1,0-3.8-0.8-5.2-2.1c-1.9-1.9-1.9-4.1-1.9-7.9s0-6,1.9-7.9   c1.4-1.4,3.1-2.1,5.2-2.1c2.1,0,3.9,0.8,5.2,2.1c1.9,1.9,1.9,4.1,1.9,7.9C285.9,99.8,285.9,102,284,103.9z M281.7,89.9   c-0.7-0.8-1.8-1.2-2.9-1.2s-2.2,0.5-2.9,1.2c-1,1.1-1.2,2.2-1.2,6.1s0.2,5.1,1.2,6.1c0.7,0.8,1.8,1.2,2.9,1.2   c1.2,0,2.2-0.5,2.9-1.2c1-1.1,1.2-2.2,1.2-6.1S282.7,90.9,281.7,89.9z"></path>
	<path class="st1" d="M296.4,105.9h-2.3l-6.5-19.7h3.1l4.5,14.4l4.5-14.4h3.2L296.4,105.9z"></path>
	<path class="st1" d="M305.7,105.9V86.1h12.6v2.7h-9.6v5.8h8.2v2.7h-8.2v5.9h9.6v2.7C318.3,105.9,305.7,105.9,305.7,105.9z"></path>
	<path class="st1" d="M333.3,105.9l-4.2-8.3h-3.7v8.3h-3V86.1h7.6c3.7,0,6.1,2.4,6.1,5.8c0,2.8-1.7,4.6-3.9,5.2l4.5,8.7   C336.8,105.9,333.3,105.9,333.3,105.9z M329.8,88.8h-4.4V95h4.4c2,0,3.4-1.1,3.4-3.1C333.2,90,331.8,88.8,329.8,88.8z"></path>
	<path class="st1" d="M352.7,105.9L343.6,92v13.9h-3V86.1h2.8l9.1,13.9V86.1h3v19.7H352.7z"></path>
	<path class="st1" d="M371.9,105.9l-1.4-4h-7.8l-1.4,4h-3.2l7.2-19.7h2.4l7.2,19.7H371.9z M366.7,90.6l-3.1,8.8h6.1L366.7,90.6z"></path>
	<path class="st1" d="M390,105.9L380.9,92v13.9h-3V86.1h2.8l9.1,13.9V86.1h3v19.7H390z"></path>
	<path class="st1" d="M404.3,106c-2,0-3.8-0.8-5.2-2.1c-1.9-1.9-1.9-4.1-1.9-7.9s0-6,1.9-7.9c1.4-1.4,3.1-2.1,5.2-2.1   c3.6,0,6.4,2.1,7,6.1h-3c-0.5-2-1.8-3.4-4-3.4c-1.2,0-2.2,0.4-2.9,1.2c-1,1.1-1.2,2.2-1.2,6.2s0.2,5.1,1.2,6.2   c0.7,0.8,1.8,1.2,2.9,1.2c2.2,0,3.5-1.4,4-3.4h3C410.7,103.9,407.9,106,404.3,106z"></path>
	<path class="st1" d="M415.3,105.9V86.1H428v2.7h-9.6v5.8h8.2v2.7h-8.2v5.9h9.6v2.7C428,105.9,415.3,105.9,415.3,105.9z"></path>
</g>
</svg>